<?xml version="1.0" encoding="utf-8"?>
<!-- Generator: Adobe Illustrator 24.3.0, SVG Export Plug-In . SVG Version: 6.00 Build 0)  -->
<svg version="1.1" id="Layer_1" xmlns="http://www.w3.org/2000/svg" xmlns:xlink="http://www.w3.org/1999/xlink" x="0px" y="0px"
	 viewBox="0 0 512 76.3" style="enable-background:new 0 0 512 76.3;" xml:space="preserve">
<style type="text/css">
	.st0{fill:#EEF5FC;}
	.st1{opacity:0.2;}
	.st2{fill:#216FEB;}
	.st3{fill:#FFE7E0;}
	.st4{fill:#DDE8FB;}
	.st5{fill:#D4D8E0;}
	.st6{fill:#FFFFFF;}
	.st7{fill:#B3B3B3;}
	.st8{opacity:0.5;}
	.st9{fill:#FF6542;}
	.st10{opacity:0.8;}
	.st11{fill:#B5B5B5;}
	.st12{fill-rule:evenodd;clip-rule:evenodd;fill:#FF6542;}
	.st13{clip-path:url(#star-empty_2_);fill-rule:evenodd;clip-rule:evenodd;fill:#FF6542;}
	.st14{fill:#005CEB;}
</style>
<g id="E3mRIO_00000155141917109396807130000005609880188839062155_">
</g>
<title>hero-top-left</title>
<rect x="-3739.1" y="671.2" class="st0" width="1219.1" height="920.4"/>
<g id="Design-_x2B_-Content_3_" class="st1">
	<g id="Get-Listed_3_" transform="translate(-201.000000, -244.000000)">
		<g id="Group-14-Copy_3_" transform="translate(-1.000000, 120.000000)">
			<g id="Group-13_1_" transform="translate(0.135844, 0.000000)">
				<g id="Group-12_1_" transform="translate(202.364156, 124.500000)">
					<path id="hero-element_1_" class="st2" d="M-4112.4-480.2c-0.1,0.6-0.6,1.1-1.2,1.1c-0.6,0-1.2-0.5-1.2-1.2
						c0-0.6,0.5-1.2,1.2-1.2c0.6,0,1.2,0.5,1.2,1.2L-4112.4-480.2z M-4104.3-480.2c-0.1,0.6-0.6,1.1-1.2,1.1c-0.6,0-1.2-0.5-1.2-1.2
						c0-0.6,0.5-1.2,1.2-1.2c0.6,0,1.2,0.5,1.2,1.2L-4104.3-480.2z M-4097.1-480.2c-0.1,0.6-0.6,1.1-1.2,1.1c-0.6,0-1.2-0.5-1.2-1.2
						c0-0.6,0.5-1.2,1.2-1.2s1.2,0.5,1.2,1.2L-4097.1-480.2z M-4089-480.2c-0.1,0.6-0.6,1.1-1.2,1.1c-0.6,0-1.2-0.5-1.2-1.2
						c0-0.6,0.5-1.2,1.2-1.2c0.6,0,1.2,0.5,1.2,1.2L-4089-480.2z M-4080.9-480.2c-0.1,0.6-0.6,1.1-1.2,1.1c-0.6,0-1.2-0.5-1.2-1.2
						c0-0.6,0.5-1.2,1.2-1.2c0.6,0,1.2,0.5,1.2,1.2L-4080.9-480.2z M-4072.8-480.2c-0.1,0.6-0.6,1.1-1.2,1.1c-0.6,0-1.2-0.5-1.2-1.2
						c0-0.6,0.5-1.2,1.2-1.2c0.6,0,1.2,0.5,1.2,1.2L-4072.8-480.2z M-4064.7-480.2c-0.1,0.6-0.6,1.1-1.2,1.1c-0.6,0-1.2-0.5-1.2-1.2
						c0-0.6,0.5-1.2,1.2-1.2c0.6,0,1.2,0.5,1.2,1.2L-4064.7-480.2z M-4112.4-472.1c-0.1,0.6-0.6,1.1-1.2,1.1c-0.6,0-1.2-0.5-1.2-1.2
						c0-0.6,0.5-1.2,1.2-1.2c0.6,0,1.2,0.5,1.2,1.2L-4112.4-472.1z M-4104.3-472.1c-0.1,0.6-0.6,1.1-1.2,1.1c-0.6,0-1.2-0.5-1.2-1.2
						s0.5-1.2,1.2-1.2c0.6,0,1.2,0.5,1.2,1.2L-4104.3-472.1z M-4097.1-472.1c-0.1,0.6-0.6,1.1-1.2,1.1c-0.6,0-1.2-0.5-1.2-1.2
						s0.5-1.2,1.2-1.2s1.2,0.5,1.2,1.2L-4097.1-472.1z M-4089-472.1c-0.1,0.6-0.6,1.1-1.2,1.1c-0.6,0-1.2-0.5-1.2-1.2
						c0-0.6,0.5-1.2,1.2-1.2c0.6,0,1.2,0.5,1.2,1.2L-4089-472.1z M-4080.9-472.1c-0.1,0.6-0.6,1.1-1.2,1.1c-0.6,0-1.2-0.5-1.2-1.2
						c0-0.6,0.5-1.2,1.2-1.2c0.6,0,1.2,0.5,1.2,1.2L-4080.9-472.1z M-4072.8-472.1c-0.1,0.6-0.6,1.1-1.2,1.1c-0.6,0-1.2-0.5-1.2-1.2
						s0.5-1.2,1.2-1.2c0.6,0,1.2,0.5,1.2,1.2L-4072.8-472.1z M-4064.7-472.1c-0.1,0.6-0.6,1.1-1.2,1.1c-0.6,0-1.2-0.5-1.2-1.2
						c0-0.6,0.5-1.2,1.2-1.2c0.6,0,1.2,0.5,1.2,1.2L-4064.7-472.1z M-4112.4-464c-0.1,0.6-0.6,1.1-1.2,1.1c-0.6,0-1.2-0.5-1.2-1.2
						s0.5-1.2,1.2-1.2c0.6,0,1.2,0.5,1.2,1.2L-4112.4-464z M-4104.3-464c-0.1,0.6-0.6,1.1-1.2,1.1c-0.6,0-1.2-0.5-1.2-1.2
						s0.5-1.2,1.2-1.2c0.6,0,1.2,0.5,1.2,1.2L-4104.3-464z M-4097.1-464c-0.1,0.6-0.6,1.1-1.2,1.1c-0.6,0-1.2-0.5-1.2-1.2
						s0.5-1.2,1.2-1.2s1.2,0.5,1.2,1.2L-4097.1-464z M-4089-464c-0.1,0.6-0.6,1.1-1.2,1.1c-0.6,0-1.2-0.5-1.2-1.2s0.5-1.2,1.2-1.2
						c0.6,0,1.2,0.5,1.2,1.2L-4089-464z M-4080.9-464c-0.1,0.6-0.6,1.1-1.2,1.1c-0.6,0-1.2-0.5-1.2-1.2s0.5-1.2,1.2-1.2
						c0.6,0,1.2,0.5,1.2,1.2L-4080.9-464z M-4072.8-464c-0.1,0.6-0.6,1.1-1.2,1.1c-0.6,0-1.2-0.5-1.2-1.2s0.5-1.2,1.2-1.2
						c0.6,0,1.2,0.5,1.2,1.2L-4072.8-464z M-4064.7-464c-0.1,0.6-0.6,1.1-1.2,1.1c-0.6,0-1.2-0.5-1.2-1.2s0.5-1.2,1.2-1.2
						c0.6,0,1.2,0.5,1.2,1.2L-4064.7-464z M-4112.4-455.9c-0.1,0.6-0.6,1.1-1.2,1.1c-0.6,0-1.2-0.5-1.2-1.2s0.5-1.2,1.2-1.2
						c0.6,0,1.2,0.5,1.2,1.2L-4112.4-455.9z M-4104.3-455.9c-0.1,0.6-0.6,1.1-1.2,1.1c-0.6,0-1.2-0.5-1.2-1.2s0.5-1.2,1.2-1.2
						c0.6,0,1.2,0.5,1.2,1.2L-4104.3-455.9z M-4097.1-455.9c-0.1,0.6-0.6,1.1-1.2,1.1c-0.6,0-1.2-0.5-1.2-1.2s0.5-1.2,1.2-1.2
						s1.2,0.5,1.2,1.2L-4097.1-455.9z M-4089-455.9c-0.1,0.6-0.6,1.1-1.2,1.1c-0.6,0-1.2-0.5-1.2-1.2s0.5-1.2,1.2-1.2
						c0.6,0,1.2,0.5,1.2,1.2L-4089-455.9z M-4080.9-455.9c-0.1,0.6-0.6,1.1-1.2,1.1c-0.6,0-1.2-0.5-1.2-1.2s0.5-1.2,1.2-1.2
						c0.6,0,1.2,0.5,1.2,1.2L-4080.9-455.9z M-4072.8-455.9c-0.1,0.6-0.6,1.1-1.2,1.1c-0.6,0-1.2-0.5-1.2-1.2s0.5-1.2,1.2-1.2
						c0.6,0,1.2,0.5,1.2,1.2L-4072.8-455.9z M-4064.7-455.9c-0.1,0.6-0.6,1.1-1.2,1.1c-0.6,0-1.2-0.5-1.2-1.2s0.5-1.2,1.2-1.2
						c0.6,0,1.2,0.5,1.2,1.2L-4064.7-455.9z M-4112.4-448.3c-0.1,0.6-0.6,1.1-1.2,1.1c-0.6,0-1.2-0.5-1.2-1.2s0.5-1.2,1.2-1.2
						c0.6,0,1.2,0.5,1.2,1.2L-4112.4-448.3z M-4104.3-448.3c-0.1,0.6-0.6,1.1-1.2,1.1c-0.6,0-1.2-0.5-1.2-1.2c0-0.6,0.5-1.2,1.2-1.2
						c0.6,0,1.2,0.5,1.2,1.2L-4104.3-448.3z M-4097.1-448.3c-0.1,0.6-0.6,1.1-1.2,1.1c-0.6,0-1.2-0.5-1.2-1.2c0-0.6,0.5-1.2,1.2-1.2
						s1.2,0.5,1.2,1.2L-4097.1-448.3z M-4089-448.3c-0.1,0.6-0.6,1.1-1.2,1.1c-0.6,0-1.2-0.5-1.2-1.2s0.5-1.2,1.2-1.2
						c0.6,0,1.2,0.5,1.2,1.2L-4089-448.3z M-4080.9-448.3c-0.1,0.6-0.6,1.1-1.2,1.1c-0.6,0-1.2-0.5-1.2-1.2s0.5-1.2,1.2-1.2
						c0.6,0,1.2,0.5,1.2,1.2L-4080.9-448.3z M-4072.8-448.3c-0.1,0.6-0.6,1.1-1.2,1.1c-0.6,0-1.2-0.5-1.2-1.2c0-0.6,0.5-1.2,1.2-1.2
						c0.6,0,1.2,0.5,1.2,1.2L-4072.8-448.3z M-4064.7-448.3c-0.1,0.6-0.6,1.1-1.2,1.1c-0.6,0-1.2-0.5-1.2-1.2s0.5-1.2,1.2-1.2
						c0.6,0,1.2,0.5,1.2,1.2L-4064.7-448.3z M-4112.4-440.2c-0.1,0.6-0.6,1.1-1.2,1.1c-0.6,0-1.2-0.5-1.2-1.2c0-0.6,0.5-1.2,1.2-1.2
						c0.6,0,1.2,0.5,1.2,1.2L-4112.4-440.2z M-4104.3-440.2c-0.1,0.6-0.6,1.1-1.2,1.1c-0.6,0-1.2-0.5-1.2-1.2c0-0.6,0.5-1.2,1.2-1.2
						c0.6,0,1.2,0.5,1.2,1.2L-4104.3-440.2z M-4097.1-440.2c-0.1,0.6-0.6,1.1-1.2,1.1c-0.6,0-1.2-0.5-1.2-1.2c0-0.6,0.5-1.2,1.2-1.2
						s1.2,0.5,1.2,1.2L-4097.1-440.2z M-4089-440.2c-0.1,0.6-0.6,1.1-1.2,1.1c-0.6,0-1.2-0.5-1.2-1.2c0-0.6,0.5-1.2,1.2-1.2
						c0.6,0,1.2,0.5,1.2,1.2L-4089-440.2z M-4080.9-440.2c-0.1,0.6-0.6,1.1-1.2,1.1c-0.6,0-1.2-0.5-1.2-1.2c0-0.6,0.5-1.2,1.2-1.2
						c0.6,0,1.2,0.5,1.2,1.2L-4080.9-440.2z M-4072.8-440.2c-0.1,0.6-0.6,1.1-1.2,1.1c-0.6,0-1.2-0.5-1.2-1.2c0-0.6,0.5-1.2,1.2-1.2
						c0.6,0,1.2,0.5,1.2,1.2L-4072.8-440.2z M-4064.7-440.2c-0.1,0.6-0.6,1.1-1.2,1.1c-0.6,0-1.2-0.5-1.2-1.2c0-0.6,0.5-1.2,1.2-1.2
						c0.6,0,1.2,0.5,1.2,1.2L-4064.7-440.2z M-4112.4-432.2c-0.1,0.6-0.6,1.1-1.2,1.1c-0.6,0-1.2-0.5-1.2-1.2s0.5-1.2,1.2-1.2
						c0.6,0,1.2,0.5,1.2,1.2L-4112.4-432.2z M-4104.3-432.2c-0.1,0.6-0.6,1.1-1.2,1.1c-0.6,0-1.2-0.5-1.2-1.2s0.5-1.2,1.2-1.2
						c0.6,0,1.2,0.5,1.2,1.2L-4104.3-432.2z M-4097.1-432.2c-0.1,0.6-0.6,1.1-1.2,1.1c-0.6,0-1.2-0.5-1.2-1.2s0.5-1.2,1.2-1.2
						s1.2,0.5,1.2,1.2L-4097.1-432.2z M-4089-432.2c-0.1,0.6-0.6,1.1-1.2,1.1c-0.6,0-1.2-0.5-1.2-1.2s0.5-1.2,1.2-1.2
						c0.6,0,1.2,0.5,1.2,1.2L-4089-432.2z M-4080.9-432.2c-0.1,0.6-0.6,1.1-1.2,1.1c-0.6,0-1.2-0.5-1.2-1.2s0.5-1.2,1.2-1.2
						c0.6,0,1.2,0.5,1.2,1.2L-4080.9-432.2z M-4072.8-432.2c-0.1,0.6-0.6,1.1-1.2,1.1c-0.6,0-1.2-0.5-1.2-1.2s0.5-1.2,1.2-1.2
						c0.6,0,1.2,0.5,1.2,1.2L-4072.8-432.2z M-4064.7-432.2c-0.1,0.6-0.6,1.1-1.2,1.1c-0.6,0-1.2-0.5-1.2-1.2s0.5-1.2,1.2-1.2
						c0.6,0,1.2,0.5,1.2,1.2L-4064.7-432.2z M-4112.4-424.1c-0.1,0.6-0.6,1.1-1.2,1.1c-0.6,0-1.2-0.5-1.2-1.2c0-0.6,0.5-1.2,1.2-1.2
						c0.6,0,1.2,0.5,1.2,1.2L-4112.4-424.1z M-4104.3-424.1c-0.1,0.6-0.6,1.1-1.2,1.1c-0.6,0-1.2-0.5-1.2-1.2c0-0.6,0.5-1.2,1.2-1.2
						c0.6,0,1.2,0.5,1.2,1.2L-4104.3-424.1z M-4097.1-424.1c-0.1,0.6-0.6,1.1-1.2,1.1c-0.6,0-1.2-0.5-1.2-1.2c0-0.6,0.5-1.2,1.2-1.2
						s1.2,0.5,1.2,1.2L-4097.1-424.1z M-4089-424.1c-0.1,0.6-0.6,1.1-1.2,1.1c-0.6,0-1.2-0.5-1.2-1.2c0-0.6,0.5-1.2,1.2-1.2
						c0.6,0,1.2,0.5,1.2,1.2L-4089-424.1z M-4080.9-424.1c-0.1,0.6-0.6,1.1-1.2,1.1c-0.6,0-1.2-0.5-1.2-1.2c0-0.6,0.5-1.2,1.2-1.2
						c0.6,0,1.2,0.5,1.2,1.2L-4080.9-424.1z M-4072.8-424.1c-0.1,0.6-0.6,1.1-1.2,1.1c-0.6,0-1.2-0.5-1.2-1.2c0-0.6,0.5-1.2,1.2-1.2
						c0.6,0,1.2,0.5,1.2,1.2L-4072.8-424.1z M-4064.7-424.1c-0.1,0.6-0.6,1.1-1.2,1.1c-0.6,0-1.2-0.5-1.2-1.2c0-0.6,0.5-1.2,1.2-1.2
						c0.6,0,1.2,0.5,1.2,1.2L-4064.7-424.1z"/>
				</g>
			</g>
		</g>
	</g>
</g>
<rect x="161.1" y="370.3" class="st0" width="2852.7" height="2852.7"/>
<rect x="-4100.7" y="-567.7" class="st0" width="1942.3" height="1107.9"/>
<g>
	<path class="st3" d="M-2256.5-222.2l0,139l-91-69.5L-2256.5-222.2z M-2529.6-291.7l91.1,69.5l-91,69.5L-2529.6-291.7L-2529.6-291.7
		z M-2256.5-361.2l0,139l-91-69.5l-91,69.5l0-139l91.1,69.5C-2347.5-291.7-2256.5-361.2-2256.5-361.2z M-2620.7-361.2l0,139
		l-91-69.5C-2711.7-291.7-2620.7-361.2-2620.7-361.2z M-2711.7-430.7l0,139l-91-69.5C-2802.8-361.2-2711.7-430.7-2711.7-430.7z
		 M-2802.7-500.1l0,139l-91-69.5C-2893.8-430.7-2802.7-500.1-2802.7-500.1z M-2438.6-500.1l91.1-69.5l0,139
		C-2347.5-430.7-2438.6-500.1-2438.6-500.1z"/>
	<path class="st4" d="M-2256.5-500.1l0,139l-91-69.5l0,139l-91-69.5v-139l91.1,69.5L-2256.5-500.1z M-2165.4-430.7l-1.2,138.4
		l-89.9-68.9L-2165.4-430.7z M-2529.6-430.7l0,139l-91-69.5l-91,69.5l0-139l91.1,69.5L-2529.6-430.7z M-2620.7-500.1l91.1-69.5
		l0,139L-2620.7-500.1z M-2529.6-152.7l93.5,71.9l88.7-71.9l-91-69.5L-2529.6-152.7L-2529.6-152.7z"/>
	<path class="st5" d="M-2256.5-500.1l-91.1-69.5l0,139C-2347.5-430.7-2256.5-500.1-2256.5-500.1z M-2802.8-500.1l91.1-69.5l0,139
		C-2711.7-430.7-2802.8-500.1-2802.8-500.1z M-2347.5-152.7l0,139l-88.6-67.1L-2347.5-152.7z M-2256.5-361.2l89.8,68.9v140.8
		l-89.8-70.7V-361.2L-2256.5-361.2z M-2347.5-291.7l91.1,69.5l-91,69.5L-2347.5-291.7L-2347.5-291.7z M-2347.5-430.7l91.1,69.5
		l-91,69.5C-2347.5-291.7-2347.5-430.7-2347.5-430.7z M-2659-168.7l31.1-25.3l0,48.8L-2659-168.7z M-2865-264l50.3-40.8l0,78.9
		L-2865-264L-2865-264z M-2620.7-361.2l91.1,69.5l-91,69.5L-2620.7-361.2L-2620.7-361.2z M-2529.6-569.6l91.1,69.5v139l-91.1-69.5
		V-569.6z M-2711.7-569.6l91,69.5v139l-91-69.5V-569.6z M-2711.7-291.7l-91.1-69.5l0,139C-2802.7-222.2-2711.7-291.7-2711.7-291.7z"
		/>
</g>
<g>
	<g>
		<path class="st6" d="M-3010.5-258.7l22,46.8l-9.9,185c0,0-15.5,75.7-131.1,114.9C-3245.1,48.7-3260.7-27-3260.7-27l-9.9-185
			l22-46.8H-3010.5z"/>
		<path class="st2" d="M-3129.6,92.1l-1.3-0.4c-60.6-20.6-93.7-51.3-110.8-73.5c-18.7-24.3-22.8-43.6-23-44.4l-0.1-0.6l-10-186
			l23.5-50h243.2l23.5,50l-0.1,1l-9.9,185.3l-0.1,0.3c-0.2,0.8-4.3,20.1-23,44.4c-17.1,22.2-50.1,52.9-110.8,73.5L-3129.6,92.1z
			 M-3256.7-27.6c0.5,2.3,5.1,19.8,21.7,41.3c16.3,21,47.7,50.1,105.4,69.9c57.6-19.8,89.1-48.9,105.4-69.9
			c16.6-21.4,21.2-38.9,21.7-41.3l9.8-183.6l-20.5-43.6h-233l-20.5,43.6L-3256.7-27.6z"/>
	</g>
	<g>
		<path class="st2" d="M-3205.4-168.9c0,0-1.5-0.1-1.5,1.1v5.6h9.4v1.7c0,0,0,0.9-0.9,0.9h-8.6v7.4h10.3c0,0,6.3-1,6.3-7.4v-9.3
			H-3205.4z M-3190.4-177.9h-18.6c-6.7,1.6-6.9,7.1-6.9,7.1v18.6h7.1v-16.9c0-1.5,1.5-1.7,1.5-1.7h16.9L-3190.4-177.9L-3190.4-177.9
			z M-3165.9-157.6c-0.5,0.4-0.9,0.6-1.1,0.7c-0.9,0.6-1.8,1-2.6,1.3c-1.2,0.5-2.2,0.7-3.2,0.7c-3.2,0-5.9-1-8.1-2.9
			c-2.2-2-3.2-4.5-3.2-7.5c0-2.9,1-5.4,2.9-7.6c2-2.1,4.3-3.2,7.1-3.2c1.1,0,2.3,0.2,3.7,0.6c1.7,0.5,3.1,1.3,4,2.3l-1.8,2.1
			c-0.7-0.7-1.8-1.3-3.1-1.7c-1-0.2-1.9-0.4-2.9-0.4c-2,0-3.6,0.7-4.9,2.3c-1.3,1.6-2,3.4-2,5.6s0.7,3.9,2.2,5.4s3.4,2.1,5.6,2.1
			c1,0,2.1-0.3,2.9-0.9c0.9-0.6,1.2-1,1.2-1v-4.5h-6.3l1-2.7h8.3L-3165.9-157.6L-3165.9-157.6z M-3147.1-163c0,2.1-0.8,4.2-2.3,5.6
			c-1.6,1.6-3.4,2.3-5.6,2.3c-2.1,0-3.9-0.7-5.5-2.3c-1.5-1.5-2.4-3.5-2.3-5.6c0-2.2,0.7-4,2.2-5.6s3.3-2.5,5.5-2.5
			c2.3,0,4.3,0.7,5.9,2.3C-3147.9-167.3-3147.1-165.3-3147.1-163L-3147.1-163z M-3150.1-163c0-1.5-0.5-2.7-1.5-3.7
			c-1-1-2.2-1.5-3.7-1.5c-1.3,0-2.6,0.5-3.4,1.6c-1,1.1-1.5,2.2-1.5,3.6c0,1.5,0.5,2.6,1.5,3.7c1,1,2.2,1.5,3.6,1.5s2.5-0.5,3.4-1.5
			C-3150.6-160.4-3150-161.5-3150.1-163L-3150.1-163z M-3128.5-163c0,2.1-0.8,4.2-2.3,5.6c-1.6,1.6-3.4,2.3-5.6,2.3
			c-2.1,0-3.9-0.7-5.5-2.3c-1.5-1.5-2.4-3.5-2.3-5.6c0-2.1,0.8-4.1,2.2-5.6c1.5-1.6,3.3-2.5,5.5-2.5c2.3,0,4.3,0.7,5.9,2.3
			C-3129.4-167.3-3128.5-165.3-3128.5-163L-3128.5-163z M-3131.5-163c0-1.5-0.5-2.7-1.5-3.7c-1-1-2.2-1.5-3.7-1.5
			c-1.3,0-2.6,0.5-3.4,1.6c-1,1.1-1.5,2.2-1.5,3.6c0,1.5,0.5,2.6,1.5,3.7c1,1,2.2,1.5,3.6,1.5c1.3,0,2.5-0.5,3.4-1.5
			C-3131.9-160.4-3131.5-161.5-3131.5-163L-3131.5-163z M-3111.4-155.4l-2.7,0.4v-2.6l-0.6,0.6c-0.5,0.5-1.1,0.9-1.7,1.2
			c-0.9,0.4-1.9,0.6-2.9,0.6c-2.1,0-3.9-0.7-5.3-2.3c-1.5-1.6-2.2-3.4-2.2-5.5c0-2.2,0.7-4.2,2.2-5.6s3.2-2.3,5.3-2.3
			c1.1,0,2.1,0.2,3.1,0.6c0.6,0.2,1.1,0.6,1.6,1.1c0.1,0.2,0.2,0.4,0.5,0.6v-6.9l2.8-0.4V-155.4z M-3113.9-162.7
			c0-1.5-0.5-2.8-1.6-3.9c-1.1-1.1-2.2-1.6-3.6-1.6c-1.5,0-2.7,0.5-3.6,1.5s-1.3,2.2-1.3,3.6c0,1.6,0.5,2.8,1.3,3.8
			c0.9,1,2.1,1.5,3.4,1.5c1.3,0,2.6-0.5,3.7-1.3C-3114.4-160.3-3113.9-161.4-3113.9-162.7L-3113.9-162.7z M-3096.3-172.7h-8v5.4h6.3
			v2.8h-6.3v8.9l-3.1,0.5v-20.5h10.5L-3096.3-172.7L-3096.3-172.7z M-3089.9-174.3l-2,2.5l-1.8-2.5l2-2.5L-3089.9-174.3z
			 M-3090.5-155.4l-2.8,0.4v-15.2l2.8-0.5V-155.4L-3090.5-155.4z M-3077.5-170.8l-1.3,3.1h-0.5c-0.2,0-0.6,0-0.9,0.1
			c-0.2,0-0.6,0.1-0.9,0.2c-0.6,0.2-1.1,0.9-1.6,1.7c-0.5,1-0.7,2.1-0.7,3.1v7.1l-2.8,0.5v-15.2l2.7-0.5v3.2
			c0.4-0.5,0.7-1.1,1.1-1.7c0.5-0.6,1.1-1,1.7-1.2c0.4-0.1,1-0.2,1.8-0.4L-3077.5-170.8L-3077.5-170.8z M-3056.3-155.4l-2.8,0.4
			v-10.4c0-1-0.2-1.7-0.6-2.1c-0.4-0.5-1.1-0.6-1.8-0.6c-1,0-1.7,0.4-2.3,1.2c-0.4,0.6-0.5,1.2-0.5,1.8v9.7l-2.8,0.5v-10.4
			c0-0.9-0.2-1.6-0.6-2.1c-0.4-0.5-1-0.7-1.7-0.7h-0.2c-1,0-1.7,0.4-2.2,1.2c-0.4,0.6-0.5,1.5-0.5,2.5v9.1l-2.9,0.5v-15.3l2.7-0.5v2
			c0.2-0.5,0.6-0.9,0.9-1.1c0.7-0.7,1.7-1.1,2.7-1.1c1.1,0,2,0.1,2.6,0.5c0.5,0.2,1,0.9,1.5,1.8c1-1.6,2.3-2.3,4.2-2.3
			c1.7,0,3.1,0.5,3.9,1.7c0.7,0.9,1.1,2.3,1.1,4v9.8L-3056.3-155.4L-3056.3-155.4z M-3043.2-160.1c0,1.3-0.5,2.6-1.5,3.4
			c-1,0.9-2.2,1.3-3.7,1.3c-1.1,0-2.1-0.2-3.1-0.7c-0.9-0.5-1.6-1.1-2.1-1.8l2-1.8c0.1,0.2,0.2,0.4,0.4,0.5c0.7,0.7,1.6,1.1,2.7,1.1
			c0.7,0,1.3-0.2,1.7-0.6c0.4-0.4,0.6-0.9,0.6-1.6s-0.5-1.3-1.5-1.6l-3.2-1c-0.9-0.5-1.6-1-2-1.5c-0.5-0.6-0.7-1.5-0.7-2.6
			c0-1.3,0.5-2.5,1.5-3.3c1-0.9,2.1-1.3,3.4-1.3c1,0,2,0.2,2.8,0.7c0.9,0.5,1.5,1,1.8,1.5l-1.6,2.2c-0.3-0.3-0.5-0.5-0.9-0.7
			c-0.7-0.5-1.3-0.7-2-0.7s-1.1,0.1-1.5,0.4c-0.5,0.3-0.8,0.9-0.7,1.5c0,0.6,0.2,1.1,0.6,1.3c0.4,0.2,1.2,0.5,2.5,0.7
			c1.2,0.2,2.2,0.9,2.9,1.6C-3043.6-162.3-3043.2-161.3-3043.2-160.1L-3043.2-160.1z"/>
	</g>
	<g>
		<polygon class="st2" points="-3012.6,4.2 -3242.4,4.2 -3260.7,-27 -3266.1,-133.9 -2995,-133.9 -2998.3,-30.4 		"/>
	</g>
	<g>
		<g>
			<path class="st6" d="M-3207.1-114.8h19.7v5.8h-6.7v34.7h-6.4V-109h-6.7V-114.8z"/>
		</g>
		<g>
			<path class="st6" d="M-3171.4-74.3c-0.1-0.3-0.2-0.5-0.2-0.8c-0.1-0.2-0.1-0.5-0.2-0.9c-0.1-0.3-0.1-0.8-0.1-1.3c0-0.5,0-1.2,0-2
				v-6.4c0-1.9-0.3-3.2-1-4c-0.7-0.8-1.7-1.2-3.2-1.2h-2.2v16.5h-6.4v-40.5h9.6c3.3,0,5.7,0.8,7.2,2.3c1.5,1.5,2.2,3.9,2.2,7v3.2
				c0,4.2-1.4,6.9-4.2,8.2c1.6,0.7,2.7,1.7,3.3,3.2c0.6,1.5,0.9,3.3,0.9,5.4v6.3c0,1,0,1.9,0.1,2.6c0.1,0.8,0.3,1.5,0.6,2.3H-3171.4
				z M-3178.3-109v12.4h2.5c1.2,0,2.1-0.3,2.8-0.9c0.7-0.6,1-1.7,1-3.4v-4c0-1.5-0.3-2.5-0.8-3.2c-0.5-0.7-1.3-1-2.5-1H-3178.3z"/>
		</g>
		<g>
			<path class="st6" d="M-3155.3-114.8v31.3c0,1.5,0.3,2.5,0.9,3.1c0.6,0.6,1.4,0.9,2.4,0.9c1,0,1.8-0.3,2.4-0.9
				c0.6-0.6,0.9-1.6,0.9-3.1v-31.3h6v30.9c0,3.3-0.8,5.8-2.4,7.6c-1.6,1.8-4,2.6-7.1,2.6c-3.1,0-5.5-0.9-7.1-2.6
				c-1.6-1.8-2.4-4.3-2.4-7.6v-30.9H-3155.3z"/>
		</g>
		<g>
			<path class="st6" d="M-3139.2-105.1c0-3.3,0.8-5.8,2.3-7.6c1.6-1.8,3.9-2.6,7-2.6c3.1,0,5.5,0.9,7,2.6c1.6,1.8,2.3,4.3,2.3,7.6
				v1.3h-6v-1.7c0-1.5-0.3-2.5-0.8-3.1c-0.6-0.6-1.3-0.9-2.3-0.9c-1,0-1.8,0.3-2.3,0.9c-0.6,0.6-0.8,1.6-0.8,3.1
				c0,1.4,0.3,2.6,0.9,3.7c0.6,1.1,1.4,2.1,2.3,3s1.9,1.9,3,2.8c1.1,0.9,2.1,2,3,3.1c0.9,1.1,1.7,2.4,2.3,3.8c0.6,1.4,0.9,3.1,0.9,5
				c0,3.3-0.8,5.8-2.4,7.6c-1.6,1.8-4,2.6-7.1,2.6c-3.1,0-5.5-0.9-7.1-2.6c-1.6-1.8-2.4-4.3-2.4-7.6v-2.5h6v2.9
				c0,1.5,0.3,2.5,0.9,3.1c0.6,0.6,1.4,0.9,2.4,0.9c1,0,1.8-0.3,2.4-0.9s0.9-1.6,0.9-3.1c0-1.4-0.3-2.6-0.9-3.7
				c-0.6-1.1-1.4-2.1-2.3-3c-0.9-0.9-1.9-1.9-3-2.8c-1.1-0.9-2.1-2-3-3.1c-0.9-1.1-1.7-2.4-2.3-3.8
				C-3138.9-101.5-3139.2-103.1-3139.2-105.1z"/>
		</g>
		<g>
			<path class="st6" d="M-3118.6-114.8h19.7v5.8h-6.7v34.7h-6.4V-109h-6.7V-114.8z"/>
		</g>
		<g>
			<path class="st6" d="M-3089.7-97.7h8.7v5.8h-8.7v11.9h11v5.8h-17.4v-40.5h17.4v5.8h-11V-97.7z"/>
		</g>
		<g>
			<path class="st6" d="M-3074.8-114.8h10.1c3.2,0,5.6,0.8,7.1,2.5c1.6,1.7,2.3,4.2,2.3,7.5v20.5c0,3.3-0.8,5.8-2.3,7.5
				c-1.6,1.7-3.9,2.5-7.1,2.5h-10.1V-114.8z M-3068.4-109v28.9h3.6c1,0,1.8-0.3,2.4-0.9c0.6-0.6,0.9-1.6,0.9-3.1v-21.1
				c0-1.5-0.3-2.5-0.9-3.1c-0.6-0.6-1.4-0.9-2.4-0.9H-3068.4z"/>
		</g>
		<g>
			<path class="st6" d="M-3172.1-31.7v5.4c0,3.3-0.8,5.8-2.4,7.6c-1.6,1.8-4,2.6-7.1,2.6c-3.1,0-5.5-0.9-7.1-2.6
				c-1.6-1.8-2.4-4.3-2.4-7.6v-21.1c0-3.3,0.8-5.8,2.4-7.6c1.6-1.8,4-2.6,7.1-2.6c3.1,0,5.5,0.9,7.1,2.6c1.6,1.8,2.4,4.3,2.4,7.6
				v3.9h-6v-4.3c0-1.5-0.3-2.5-0.9-3.1s-1.4-0.9-2.4-0.9c-1,0-1.8,0.3-2.4,0.9c-0.6,0.6-0.9,1.6-0.9,3.1v21.9c0,1.5,0.3,2.5,0.9,3.1
				c0.6,0.6,1.4,0.9,2.4,0.9c1,0,1.8-0.3,2.4-0.9c0.6-0.6,0.9-1.6,0.9-3.1v-5.8H-3172.1z"/>
		</g>
		<g>
			<path class="st6" d="M-3161.8-16.6h-6.4v-40.5h6.4v17.4h7.2v-17.4h6.5v40.5h-6.5v-17.4h-7.2V-16.6z"/>
		</g>
		<g>
			<path class="st6" d="M-3144-47.3c0-3.3,0.8-5.8,2.5-7.6c1.7-1.8,4.1-2.6,7.2-2.6c3.1,0,5.5,0.9,7.2,2.6c1.7,1.8,2.5,4.3,2.5,7.6
				v21.1c0,3.3-0.8,5.8-2.5,7.6c-1.7,1.8-4.1,2.6-7.2,2.6c-3.1,0-5.5-0.9-7.2-2.6c-1.7-1.8-2.5-4.3-2.5-7.6V-47.3z M-3137.6-25.9
				c0,1.5,0.3,2.5,0.9,3.1c0.6,0.6,1.4,0.9,2.4,0.9c1,0,1.8-0.3,2.4-0.9s0.9-1.6,0.9-3.1v-21.9c0-1.5-0.3-2.5-0.9-3.1
				s-1.4-0.9-2.4-0.9c-1,0-1.8,0.3-2.4,0.9c-0.6,0.6-0.9,1.6-0.9,3.1V-25.9z"/>
		</g>
		<g>
			<path class="st6" d="M-3120.6-57.1h6.4v40.5h-6.4V-57.1z"/>
		</g>
		<g>
			<path class="st6" d="M-3091.1-31.7v5.4c0,3.3-0.8,5.8-2.4,7.6c-1.6,1.8-4,2.6-7.1,2.6c-3.1,0-5.5-0.9-7.1-2.6
				c-1.6-1.8-2.4-4.3-2.4-7.6v-21.1c0-3.3,0.8-5.8,2.4-7.6c1.6-1.8,4-2.6,7.1-2.6c3.1,0,5.5,0.9,7.1,2.6c1.6,1.8,2.4,4.3,2.4,7.6
				v3.9h-6v-4.3c0-1.5-0.3-2.5-0.9-3.1c-0.6-0.6-1.4-0.9-2.4-0.9c-1,0-1.8,0.3-2.4,0.9s-0.9,1.6-0.9,3.1v21.9c0,1.5,0.3,2.5,0.9,3.1
				c0.6,0.6,1.4,0.9,2.4,0.9c1,0,1.8-0.3,2.4-0.9c0.6-0.6,0.9-1.6,0.9-3.1v-5.8H-3091.1z"/>
		</g>
		<g>
			<path class="st6" d="M-3080.9-40h8.7v5.8h-8.7v11.9h11v5.8h-17.4v-40.5h17.4v5.8h-11V-40z"/>
		</g>
	</g>
	<g>
		<g>
			<path class="st7" d="M-3173,29.7c0,0.7-0.1,1.4-0.1,2.6v5.4c0,2.1-0.4,3.4-1.3,4.2c-0.9,0.8-2.2,1.1-3.4,1.1
				c-1.1,0-2.3-0.3-3.1-0.8l0.4-1.3c0.6,0.4,1.6,0.7,2.7,0.7c1.7,0,3-0.9,3-3.3v-1h0c-0.5,0.9-1.5,1.6-3,1.6c-2.3,0-4-2-4-4.5
				c0-3.2,2.1-4.9,4.2-4.9c1.6,0,2.5,0.8,2.9,1.6h0l0.1-1.4H-3173z M-3174.7,33.4c0-0.3,0-0.5-0.1-0.8c-0.3-1-1.1-1.8-2.4-1.8
				c-1.6,0-2.8,1.4-2.8,3.5c0,1.8,0.9,3.3,2.7,3.3c1,0,2-0.7,2.3-1.7c0.1-0.3,0.1-0.6,0.1-0.9V33.4z"/>
		</g>
		<g>
			<path class="st7" d="M-3161.8,34.3c0,3.4-2.4,4.9-4.6,4.9c-2.5,0-4.5-1.8-4.5-4.8c0-3.1,2-4.9,4.6-4.9
				C-3163.6,29.5-3161.8,31.4-3161.8,34.3z M-3169.2,34.4c0,2,1.2,3.6,2.8,3.6c1.6,0,2.8-1.5,2.8-3.6c0-1.6-0.8-3.6-2.8-3.6
				C-3168.3,30.7-3169.2,32.6-3169.2,34.4z"/>
		</g>
		<g>
			<path class="st7" d="M-3151.2,34.3c0,3.4-2.4,4.9-4.6,4.9c-2.5,0-4.5-1.8-4.5-4.8c0-3.1,2-4.9,4.6-4.9
				C-3153.1,29.5-3151.2,31.4-3151.2,34.3z M-3158.6,34.4c0,2,1.2,3.6,2.8,3.6c1.6,0,2.8-1.5,2.8-3.6c0-1.6-0.8-3.6-2.8-3.6
				C-3157.8,30.7-3158.6,32.6-3158.6,34.4z"/>
		</g>
		<g>
			<path class="st7" d="M-3141.1,25.3v11.2c0,0.8,0,1.8,0.1,2.4h-1.5l-0.1-1.6h0c-0.5,1-1.7,1.8-3.2,1.8c-2.3,0-4-1.9-4-4.7
				c0-3.1,1.9-5,4.2-5c1.4,0,2.4,0.7,2.8,1.4h0v-5.6H-3141.1z M-3142.8,33.5c0-0.2,0-0.5-0.1-0.7c-0.2-1.1-1.2-2-2.4-2
				c-1.7,0-2.8,1.5-2.8,3.6c0,1.9,0.9,3.4,2.7,3.4c1.1,0,2.2-0.8,2.5-2c0.1-0.2,0.1-0.5,0.1-0.7V33.5z"/>
		</g>
		<g>
			<path class="st7" d="M-3138.1,39v-8h-1.3v-1.3h1.3v-0.5c0-2.5,1.4-4.1,4.1-4.1c0.9,0,1.9,0.3,2.4,0.6l-0.5,1.3
				c-0.4-0.3-1.1-0.5-2-0.5c-1.8,0-2.3,1.3-2.3,2.7v0.5h5.4V39h-1.7v-8h-3.7v8H-3138.1z"/>
		</g>
		<g>
			<path class="st7" d="M-3128.2,32.6c0-1.1,0-2-0.1-2.9h1.5l0.1,1.8h0.1c0.4-1.2,1.4-2,2.6-2c0.2,0,0.3,0,0.5,0.1v1.6
				c-0.2,0-0.3-0.1-0.6-0.1c-1.2,0-2,0.9-2.3,2.2c0,0.2-0.1,0.5-0.1,0.8v5h-1.7V32.6z"/>
		</g>
		<g>
			<path class="st7" d="M-3121.8,32.2c0-1,0-1.8-0.1-2.5h1.5l0.1,1.5h0.1c0.5-0.9,1.4-1.7,2.9-1.7c1.3,0,2.2,0.8,2.6,1.9h0
				c0.3-0.5,0.7-0.9,1-1.2c0.6-0.4,1.2-0.7,2.1-0.7c1.2,0,3.1,0.8,3.1,4V39h-1.7v-5.3c0-1.8-0.7-2.9-2-2.9c-1,0-1.7,0.7-2,1.5
				c-0.1,0.2-0.1,0.5-0.1,0.8V39h-1.7v-5.6c0-1.5-0.7-2.6-1.9-2.6c-1.1,0-1.8,0.8-2.1,1.7c-0.1,0.3-0.1,0.5-0.1,0.8V39h-1.7V32.2z"
				/>
		</g>
		<g>
			<path class="st7" d="M-3106,37.3c0.5,0.3,1.4,0.7,2.2,0.7c1.2,0,1.8-0.6,1.8-1.4c0-0.8-0.5-1.3-1.7-1.7c-1.7-0.6-2.5-1.5-2.5-2.6
				c0-1.5,1.2-2.7,3.2-2.7c0.9,0,1.8,0.3,2.3,0.6l-0.4,1.2c-0.4-0.2-1-0.5-1.9-0.5c-1,0-1.6,0.6-1.6,1.3c0,0.8,0.6,1.1,1.8,1.6
				c1.6,0.6,2.4,1.4,2.4,2.8c0,1.6-1.3,2.8-3.5,2.8c-1,0-2-0.3-2.6-0.6L-3106,37.3z"/>
		</g>
		<g>
			<path class="st7" d="M-3098.8,38c0-0.7,0.5-1.2,1.2-1.2c0.7,0,1.1,0.5,1.1,1.2c0,0.7-0.4,1.2-1.2,1.2
				C-3098.3,39.2-3098.8,38.7-3098.8,38z"/>
		</g>
		<g>
			<path class="st7" d="M-3087.7,38.6c-0.4,0.2-1.4,0.5-2.7,0.5c-2.8,0-4.6-1.9-4.6-4.7c0-2.9,2-4.9,5-4.9c1,0,1.9,0.3,2.3,0.5
				l-0.4,1.3c-0.4-0.2-1-0.4-2-0.4c-2.1,0-3.3,1.6-3.3,3.5c0,2.2,1.4,3.5,3.2,3.5c1,0,1.6-0.2,2.1-0.5L-3087.7,38.6z"/>
		</g>
		<g>
			<path class="st7" d="M-3077.5,34.3c0,3.4-2.4,4.9-4.6,4.9c-2.5,0-4.5-1.8-4.5-4.8c0-3.1,2-4.9,4.6-4.9
				C-3079.3,29.5-3077.5,31.4-3077.5,34.3z M-3084.8,34.4c0,2,1.2,3.6,2.8,3.6c1.6,0,2.8-1.5,2.8-3.6c0-1.6-0.8-3.6-2.8-3.6
				C-3084,30.7-3084.8,32.6-3084.8,34.4z"/>
		</g>
	</g>
	<g>
		<g class="st8">
			<g>
				<path class="st9" d="M-3171.7-211.8c-0.1-0.4-0.4-0.6-0.8-0.6l-5.1-0.5l-2-4.7c-0.1-0.3-0.5-0.6-0.9-0.6c-0.4,0-0.7,0.2-0.9,0.6
					l-2,4.7l-5.1,0.5c-0.4,0-0.7,0.3-0.8,0.6c-0.1,0.4,0,0.8,0.3,1l3.9,3.4l-1.1,5c-0.1,0.4,0.1,0.8,0.4,1c0.2,0.1,0.4,0.2,0.6,0.2
					c0.2,0,0.3,0,0.5-0.1l4.4-2.6l4.4,2.6c0.3,0.2,0.7,0.2,1,0c0.3-0.2,0.5-0.6,0.4-1l-1.1-5l3.9-3.4
					C-3171.7-211-3171.6-211.4-3171.7-211.8L-3171.7-211.8z"/>
			</g>
		</g>
		<g class="st8">
			<g>
				<path class="st9" d="M-3069.8-211.8c-0.1-0.4-0.4-0.6-0.8-0.6l-5.1-0.5l-2-4.7c-0.1-0.3-0.5-0.6-0.9-0.6c-0.4,0-0.7,0.2-0.9,0.6
					l-2,4.7l-5.1,0.5c-0.4,0-0.7,0.3-0.8,0.6c-0.1,0.4,0,0.8,0.3,1l3.9,3.4l-1.1,5c-0.1,0.4,0.1,0.8,0.4,1c0.2,0.1,0.4,0.2,0.6,0.2
					c0.2,0,0.3,0,0.5-0.1l4.4-2.6l4.4,2.6c0.3,0.2,0.7,0.2,1,0c0.3-0.2,0.5-0.6,0.4-1l-1.1-5l3.9-3.4
					C-3069.7-211-3069.6-211.4-3069.8-211.8L-3069.8-211.8z"/>
			</g>
		</g>
		<g class="st10">
			<g>
				<path class="st9" d="M-3146.4-217.4c-0.2-0.5-0.7-0.9-1.2-1l-7.8-0.7l-3.1-7.2c-0.2-0.5-0.7-0.9-1.3-0.9c-0.6,0-1.1,0.3-1.3,0.9
					l-3.1,7.2l-7.8,0.7c-0.6,0.1-1.1,0.4-1.2,1c-0.2,0.5,0,1.2,0.4,1.5l5.9,5.2l-1.7,7.7c-0.1,0.6,0.1,1.1,0.6,1.5
					c0.3,0.2,0.5,0.3,0.8,0.3c0.3,0,0.5-0.1,0.7-0.2l6.7-4l6.7,4c0.5,0.3,1.1,0.3,1.6-0.1c0.5-0.3,0.7-0.9,0.6-1.5l-1.7-7.7l5.9-5.2
					C-3146.4-216.2-3146.2-216.8-3146.4-217.4L-3146.4-217.4z"/>
			</g>
		</g>
		<g class="st10">
			<g>
				<path class="st9" d="M-3085.8-217.4c-0.2-0.5-0.7-0.9-1.2-1l-7.8-0.7l-3.1-7.2c-0.2-0.5-0.7-0.9-1.3-0.9c-0.6,0-1.1,0.3-1.3,0.9
					l-3.1,7.2l-7.8,0.7c-0.6,0.1-1.1,0.4-1.2,1c-0.2,0.5,0,1.2,0.4,1.5l5.9,5.2l-1.7,7.7c-0.1,0.6,0.1,1.1,0.6,1.5
					c0.3,0.2,0.5,0.3,0.8,0.3c0.3,0,0.5-0.1,0.7-0.2l6.7-4l6.7,4c0.5,0.3,1.1,0.3,1.6-0.1c0.5-0.3,0.7-0.9,0.6-1.5l-1.7-7.7l5.9-5.2
					C-3085.8-216.2-3085.6-216.8-3085.8-217.4L-3085.8-217.4z"/>
			</g>
		</g>
		<g>
			<g>
				<path class="st9" d="M-3109.3-225.5c-0.3-0.8-1-1.4-1.9-1.5l-11.7-1.1l-4.6-10.9c-0.3-0.8-1.1-1.3-2-1.3s-1.6,0.5-2,1.3
					l-4.6,10.9l-11.7,1.1c-0.9,0.1-1.6,0.7-1.9,1.5c-0.3,0.8,0,1.7,0.6,2.3l8.9,7.8l-2.6,11.5c-0.2,0.8,0.1,1.7,0.8,2.2
					c0.4,0.3,0.8,0.4,1.3,0.4c0.4,0,0.8-0.1,1.1-0.3l10.1-6l10.1,6c0.7,0.4,1.7,0.4,2.4-0.1c0.7-0.5,1-1.4,0.8-2.2l-2.6-11.5
					l8.9-7.8C-3109.3-223.7-3109-224.6-3109.3-225.5L-3109.3-225.5z"/>
			</g>
		</g>
	</g>
</g>
<g>
	<g>
		<path class="st6" d="M-1172.8-198.7l22,46.8l-9.9,185c0,0-15.5,75.7-131.1,114.9C-1407.4,108.7-1423,33.1-1423,33.1l-9.9-185
			l22-46.8H-1172.8z"/>
		<path class="st2" d="M-1291.9,152.2l-1.3-0.4c-60.6-20.6-93.7-51.3-110.8-73.5c-18.7-24.3-22.8-43.6-23-44.4l-0.1-0.6l-10-186
			l23.5-50h243.2l23.5,50l-0.1,1l-9.9,185.3l-0.1,0.3c-0.2,0.8-4.3,20.1-23,44.4c-17.1,22.2-50.1,52.9-110.8,73.5L-1291.9,152.2z
			 M-1419,32.5c0.5,2.3,5.1,19.8,21.7,41.3c16.3,21,47.7,50.1,105.4,69.9c57.6-19.8,89.1-48.9,105.4-69.9
			c16.6-21.4,21.2-38.9,21.7-41.3l9.8-183.6l-20.5-43.6h-233l-20.5,43.6L-1419,32.5z"/>
	</g>
	<g>
		<path class="st2" d="M-1367.7-108.8c0,0-1.5-0.1-1.5,1.1v5.6h9.4v1.7c0,0,0,0.9-0.9,0.9h-8.6v7.4h10.3c0,0,6.3-1,6.3-7.4v-9.3
			H-1367.7z M-1352.7-117.9h-18.6c-6.7,1.6-6.9,7.1-6.9,7.1v18.6h7.1v-16.9c0-1.5,1.5-1.7,1.5-1.7h16.9L-1352.7-117.9L-1352.7-117.9
			z M-1328.2-97.5c-0.5,0.4-0.9,0.6-1.1,0.7c-0.9,0.6-1.8,1-2.6,1.3c-1.2,0.5-2.2,0.7-3.2,0.7c-3.2,0-5.9-1-8.1-2.9
			s-3.2-4.5-3.2-7.5s1-5.4,2.9-7.6c2-2.1,4.3-3.2,7.1-3.2c1.1,0,2.3,0.2,3.7,0.6c1.7,0.5,3.1,1.3,4,2.3l-1.8,2.1
			c-0.7-0.7-1.8-1.3-3.1-1.7c-1-0.2-1.9-0.4-2.9-0.4c-2,0-3.6,0.7-4.9,2.3c-1.3,1.6-2,3.4-2,5.6s0.7,3.9,2.2,5.4s3.4,2.1,5.6,2.1
			c1,0,2.1-0.3,2.9-0.9c0.9-0.6,1.2-1,1.2-1v-4.5h-6.3l1-2.7h8.3L-1328.2-97.5L-1328.2-97.5z M-1309.4-102.9c0,2.1-0.8,4.2-2.3,5.6
			c-1.6,1.6-3.4,2.3-5.6,2.3c-2.1,0-3.9-0.7-5.5-2.3c-1.5-1.5-2.4-3.5-2.3-5.6c0-2.2,0.7-4,2.2-5.6c1.5-1.6,3.3-2.5,5.5-2.5
			c2.3,0,4.3,0.7,5.9,2.3C-1310.2-107.2-1309.4-105.3-1309.4-102.9L-1309.4-102.9z M-1312.4-102.9c0-1.5-0.5-2.7-1.5-3.7
			c-1-1-2.2-1.5-3.7-1.5c-1.3,0-2.6,0.5-3.4,1.6c-1,1.1-1.5,2.2-1.5,3.6c0,1.5,0.5,2.6,1.5,3.7c1,1,2.2,1.5,3.6,1.5s2.5-0.5,3.4-1.5
			C-1312.9-100.4-1312.3-101.5-1312.4-102.9L-1312.4-102.9z M-1290.8-102.9c0,2.1-0.8,4.2-2.3,5.6c-1.6,1.6-3.4,2.3-5.6,2.3
			c-2.1,0-3.9-0.7-5.5-2.3c-1.5-1.5-2.4-3.5-2.3-5.6c0-2.1,0.8-4.1,2.2-5.6c1.5-1.6,3.3-2.5,5.5-2.5c2.3,0,4.3,0.7,5.9,2.3
			C-1291.7-107.2-1290.8-105.3-1290.8-102.9L-1290.8-102.9z M-1293.8-102.9c0-1.5-0.5-2.7-1.5-3.7c-1-1-2.2-1.5-3.7-1.5
			c-1.3,0-2.6,0.5-3.4,1.6c-1,1.1-1.5,2.2-1.5,3.6c0,1.5,0.5,2.6,1.5,3.7c1,1,2.2,1.5,3.6,1.5s2.5-0.5,3.4-1.5
			C-1294.2-100.4-1293.8-101.5-1293.8-102.9L-1293.8-102.9z M-1273.7-95.3l-2.7,0.4v-2.6l-0.6,0.6c-0.5,0.5-1.1,0.9-1.7,1.2
			c-0.9,0.4-1.9,0.6-2.9,0.6c-2.1,0-3.9-0.7-5.3-2.3c-1.5-1.6-2.2-3.4-2.2-5.5c0-2.2,0.7-4.2,2.2-5.6s3.2-2.3,5.3-2.3
			c1.1,0,2.1,0.2,3.1,0.6c0.6,0.2,1.1,0.6,1.6,1.1c0.1,0.2,0.2,0.4,0.5,0.6v-6.9l2.8-0.4V-95.3z M-1276.2-102.7
			c0-1.5-0.5-2.8-1.6-3.9s-2.2-1.6-3.6-1.6c-1.5,0-2.7,0.5-3.6,1.5c-0.9,1-1.3,2.2-1.3,3.6c0,1.6,0.5,2.8,1.3,3.8
			c0.9,1,2.1,1.5,3.4,1.5c1.3,0,2.6-0.5,3.7-1.3C-1276.7-100.2-1276.2-101.3-1276.2-102.7L-1276.2-102.7z M-1258.6-112.6h-8v5.4h6.3
			v2.8h-6.3v8.9l-3.1,0.5v-20.5h10.5L-1258.6-112.6L-1258.6-112.6z M-1252.2-114.2l-2,2.5l-1.8-2.5l2-2.5L-1252.2-114.2z
			 M-1252.8-95.3l-2.8,0.4v-15.2l2.8-0.5V-95.3L-1252.8-95.3z M-1239.8-110.8l-1.3,3.1h-0.5c-0.2,0-0.6,0-0.9,0.1
			c-0.2,0-0.6,0.1-0.9,0.2c-0.6,0.2-1.1,0.9-1.6,1.7c-0.5,1-0.7,2.1-0.7,3.1v7.1l-2.8,0.5v-15.2l2.7-0.5v3.2
			c0.4-0.5,0.7-1.1,1.1-1.7c0.5-0.6,1.1-1,1.7-1.2c0.4-0.1,1-0.2,1.8-0.4L-1239.8-110.8L-1239.8-110.8z M-1218.6-95.3l-2.8,0.4
			v-10.4c0-1-0.2-1.7-0.6-2.1c-0.4-0.5-1.1-0.6-1.8-0.6c-1,0-1.7,0.4-2.3,1.2c-0.4,0.6-0.5,1.2-0.5,1.8v9.7l-2.8,0.5v-10.4
			c0-0.9-0.2-1.6-0.6-2.1c-0.4-0.5-1-0.7-1.7-0.7h-0.2c-1,0-1.7,0.4-2.2,1.2c-0.4,0.6-0.5,1.5-0.5,2.5v9.1l-2.9,0.5v-15.3l2.7-0.5v2
			c0.2-0.5,0.6-0.9,0.9-1.1c0.7-0.7,1.7-1.1,2.7-1.1c1.1,0,2,0.1,2.6,0.5c0.5,0.2,1,0.9,1.5,1.8c1-1.6,2.3-2.3,4.2-2.3
			c1.7,0,3.1,0.5,3.9,1.7c0.7,0.9,1.1,2.3,1.1,4v9.8L-1218.6-95.3L-1218.6-95.3z M-1205.5-100c0,1.3-0.5,2.6-1.5,3.4
			c-1,0.9-2.2,1.3-3.7,1.3c-1.1,0-2.1-0.2-3.1-0.7c-0.9-0.5-1.6-1.1-2.1-1.8l2-1.8c0.1,0.2,0.2,0.4,0.4,0.5c0.7,0.7,1.6,1.1,2.7,1.1
			c0.7,0,1.3-0.2,1.7-0.6c0.4-0.4,0.6-0.9,0.6-1.6s-0.5-1.3-1.5-1.6l-3.2-1c-0.9-0.5-1.6-1-2-1.5c-0.5-0.6-0.7-1.5-0.7-2.6
			c0-1.3,0.5-2.5,1.5-3.3c1-0.9,2.1-1.3,3.4-1.3c1,0,2,0.2,2.8,0.7s1.5,1,1.8,1.5l-1.6,2.2c-0.3-0.3-0.5-0.5-0.9-0.7
			c-0.7-0.5-1.3-0.7-2-0.7c-0.6,0-1.1,0.1-1.5,0.4c-0.5,0.3-0.8,0.9-0.7,1.5c0,0.6,0.2,1.1,0.6,1.3s1.2,0.5,2.5,0.7
			c1.2,0.2,2.2,0.9,2.9,1.6C-1205.9-102.2-1205.5-101.2-1205.5-100L-1205.5-100z"/>
	</g>
	<g>
		<polygon class="st2" points="-1174.9,64.2 -1404.7,64.2 -1423,33.1 -1428.4,-73.8 -1157.3,-73.8 -1160.6,29.6 		"/>
	</g>
	<g>
		<g>
			<path class="st6" d="M-1369.4-54.7h19.7v5.8h-6.7v34.7h-6.4V-49h-6.7V-54.7z"/>
		</g>
		<g>
			<path class="st6" d="M-1333.7-14.2c-0.1-0.3-0.2-0.5-0.2-0.8c-0.1-0.2-0.1-0.5-0.2-0.9c-0.1-0.3-0.1-0.8-0.1-1.3c0-0.5,0-1.2,0-2
				v-6.4c0-1.9-0.3-3.2-1-4c-0.7-0.8-1.7-1.2-3.2-1.2h-2.2v16.5h-6.4v-40.5h9.6c3.3,0,5.7,0.8,7.2,2.3c1.5,1.5,2.2,3.9,2.2,7v3.2
				c0,4.2-1.4,6.9-4.2,8.2c1.6,0.7,2.7,1.7,3.3,3.2c0.6,1.5,0.9,3.3,0.9,5.4v6.3c0,1,0,1.9,0.1,2.6c0.1,0.8,0.3,1.5,0.6,2.3H-1333.7
				z M-1340.6-49v12.4h2.5c1.2,0,2.1-0.3,2.8-0.9c0.7-0.6,1-1.7,1-3.4v-4c0-1.5-0.3-2.5-0.8-3.2c-0.5-0.7-1.3-1-2.5-1H-1340.6z"/>
		</g>
		<g>
			<path class="st6" d="M-1317.6-54.7v31.3c0,1.5,0.3,2.5,0.9,3.1c0.6,0.6,1.4,0.9,2.4,0.9c1,0,1.8-0.3,2.4-0.9
				c0.6-0.6,0.9-1.6,0.9-3.1v-31.3h6v30.9c0,3.3-0.8,5.8-2.4,7.6c-1.6,1.8-4,2.6-7.1,2.6s-5.5-0.9-7.1-2.6c-1.6-1.8-2.4-4.3-2.4-7.6
				v-30.9H-1317.6z"/>
		</g>
		<g>
			<path class="st6" d="M-1301.5-45c0-3.3,0.8-5.8,2.3-7.6c1.6-1.8,3.9-2.6,7-2.6s5.5,0.9,7,2.6c1.6,1.8,2.3,4.3,2.3,7.6v1.3h-6
				v-1.7c0-1.5-0.3-2.5-0.8-3.1s-1.3-0.9-2.3-0.9s-1.8,0.3-2.3,0.9c-0.6,0.6-0.8,1.6-0.8,3.1c0,1.4,0.3,2.6,0.9,3.7
				c0.6,1.1,1.4,2.1,2.3,3c0.9,0.9,1.9,1.9,3,2.8c1.1,0.9,2.1,2,3,3.1c0.9,1.1,1.7,2.4,2.3,3.8c0.6,1.4,0.9,3.1,0.9,5
				c0,3.3-0.8,5.8-2.4,7.6c-1.6,1.8-4,2.6-7.1,2.6s-5.5-0.9-7.1-2.6c-1.6-1.8-2.4-4.3-2.4-7.6v-2.5h6v2.9c0,1.5,0.3,2.5,0.9,3.1
				c0.6,0.6,1.4,0.9,2.4,0.9s1.8-0.3,2.4-0.9c0.6-0.6,0.9-1.6,0.9-3.1c0-1.4-0.3-2.6-0.9-3.7c-0.6-1.1-1.4-2.1-2.3-3
				c-0.9-0.9-1.9-1.9-3-2.8c-1.1-0.9-2.1-2-3-3.1c-0.9-1.1-1.7-2.4-2.3-3.8C-1301.2-41.4-1301.5-43.1-1301.5-45z"/>
		</g>
		<g>
			<path class="st6" d="M-1280.9-54.7h19.7v5.8h-6.7v34.7h-6.4V-49h-6.7V-54.7z"/>
		</g>
		<g>
			<path class="st6" d="M-1252-37.7h8.7v5.8h-8.7V-20h11v5.8h-17.4v-40.5h17.4v5.8h-11V-37.7z"/>
		</g>
		<g>
			<path class="st6" d="M-1237.1-54.7h10.1c3.2,0,5.6,0.8,7.1,2.5c1.6,1.7,2.3,4.2,2.3,7.5v20.5c0,3.3-0.8,5.8-2.3,7.5
				c-1.6,1.7-3.9,2.5-7.1,2.5h-10.1V-54.7z M-1230.7-49V-20h3.6c1,0,1.8-0.3,2.4-0.9c0.6-0.6,0.9-1.6,0.9-3.1V-45
				c0-1.5-0.3-2.5-0.9-3.1c-0.6-0.6-1.4-0.9-2.4-0.9H-1230.7z"/>
		</g>
		<g>
			<path class="st6" d="M-1334.4,28.4v5.4c0,3.3-0.8,5.8-2.4,7.6c-1.6,1.8-4,2.6-7.1,2.6s-5.5-0.9-7.1-2.6c-1.6-1.8-2.4-4.3-2.4-7.6
				V12.7c0-3.3,0.8-5.8,2.4-7.6c1.6-1.8,4-2.6,7.1-2.6s5.5,0.9,7.1,2.6c1.6,1.8,2.4,4.3,2.4,7.6v3.9h-6v-4.3c0-1.5-0.3-2.5-0.9-3.1
				c-0.6-0.6-1.4-0.9-2.4-0.9c-1,0-1.8,0.3-2.4,0.9c-0.6,0.6-0.9,1.6-0.9,3.1v21.9c0,1.5,0.3,2.5,0.9,3.1c0.6,0.6,1.4,0.9,2.4,0.9
				c1,0,1.8-0.3,2.4-0.9c0.6-0.6,0.9-1.6,0.9-3.1v-5.8H-1334.4z"/>
		</g>
		<g>
			<path class="st6" d="M-1324.1,43.5h-6.4V3h6.4v17.4h7.2V3h6.5v40.5h-6.5V26.1h-7.2V43.5z"/>
		</g>
		<g>
			<path class="st6" d="M-1306.3,12.7c0-3.3,0.8-5.8,2.5-7.6c1.7-1.8,4.1-2.6,7.2-2.6s5.5,0.9,7.2,2.6c1.7,1.8,2.5,4.3,2.5,7.6v21.1
				c0,3.3-0.8,5.8-2.5,7.6c-1.7,1.8-4.1,2.6-7.2,2.6s-5.5-0.9-7.2-2.6c-1.7-1.8-2.5-4.3-2.5-7.6V12.7z M-1299.9,34.2
				c0,1.5,0.3,2.5,0.9,3.1c0.6,0.6,1.4,0.9,2.4,0.9c1,0,1.8-0.3,2.4-0.9c0.6-0.6,0.9-1.6,0.9-3.1V12.3c0-1.5-0.3-2.5-0.9-3.1
				c-0.6-0.6-1.4-0.9-2.4-0.9c-1,0-1.8,0.3-2.4,0.9c-0.6,0.6-0.9,1.6-0.9,3.1V34.2z"/>
		</g>
		<g>
			<path class="st6" d="M-1282.9,3h6.4v40.5h-6.4V3z"/>
		</g>
		<g>
			<path class="st6" d="M-1253.4,28.4v5.4c0,3.3-0.8,5.8-2.4,7.6c-1.6,1.8-4,2.6-7.1,2.6s-5.5-0.9-7.1-2.6c-1.6-1.8-2.4-4.3-2.4-7.6
				V12.7c0-3.3,0.8-5.8,2.4-7.6c1.6-1.8,4-2.6,7.1-2.6s5.5,0.9,7.1,2.6c1.6,1.8,2.4,4.3,2.4,7.6v3.9h-6v-4.3c0-1.5-0.3-2.5-0.9-3.1
				c-0.6-0.6-1.4-0.9-2.4-0.9c-1,0-1.8,0.3-2.4,0.9c-0.6,0.6-0.9,1.6-0.9,3.1v21.9c0,1.5,0.3,2.5,0.9,3.1c0.6,0.6,1.4,0.9,2.4,0.9
				c1,0,1.8-0.3,2.4-0.9c0.6-0.6,0.9-1.6,0.9-3.1v-5.8H-1253.4z"/>
		</g>
		<g>
			<path class="st6" d="M-1243.2,20.1h8.7v5.8h-8.7v11.9h11v5.8h-17.4V3h17.4v5.8h-11V20.1z"/>
		</g>
	</g>
	<g>
		<g>
			<path class="st7" d="M-1335.3,89.7c0,0.7-0.1,1.4-0.1,2.6v5.4c0,2.1-0.4,3.4-1.3,4.2c-0.9,0.8-2.2,1.1-3.4,1.1
				c-1.1,0-2.3-0.3-3.1-0.8l0.4-1.3c0.6,0.4,1.6,0.7,2.7,0.7c1.7,0,3-0.9,3-3.3v-1h0c-0.5,0.9-1.5,1.6-3,1.6c-2.3,0-4-2-4-4.5
				c0-3.2,2.1-4.9,4.2-4.9c1.6,0,2.5,0.8,2.9,1.6h0l0.1-1.4H-1335.3z M-1337,93.4c0-0.3,0-0.5-0.1-0.8c-0.3-1-1.1-1.8-2.4-1.8
				c-1.6,0-2.8,1.4-2.8,3.5c0,1.8,0.9,3.3,2.7,3.3c1,0,2-0.7,2.3-1.7c0.1-0.3,0.1-0.6,0.1-0.9V93.4z"/>
		</g>
		<g>
			<path class="st7" d="M-1324.1,94.3c0,3.4-2.4,4.9-4.6,4.9c-2.5,0-4.5-1.8-4.5-4.8c0-3.1,2-4.9,4.6-4.9
				C-1325.9,89.5-1324.1,91.5-1324.1,94.3z M-1331.5,94.4c0,2,1.2,3.6,2.8,3.6c1.6,0,2.8-1.5,2.8-3.6c0-1.6-0.8-3.6-2.8-3.6
				C-1330.6,90.8-1331.5,92.6-1331.5,94.4z"/>
		</g>
		<g>
			<path class="st7" d="M-1313.5,94.3c0,3.4-2.4,4.9-4.6,4.9c-2.5,0-4.5-1.8-4.5-4.8c0-3.1,2-4.9,4.6-4.9
				C-1315.4,89.5-1313.5,91.5-1313.5,94.3z M-1320.9,94.4c0,2,1.2,3.6,2.8,3.6c1.6,0,2.8-1.5,2.8-3.6c0-1.6-0.8-3.6-2.8-3.6
				C-1320.1,90.8-1320.9,92.6-1320.9,94.4z"/>
		</g>
		<g>
			<path class="st7" d="M-1303.4,85.4v11.2c0,0.8,0,1.8,0.1,2.4h-1.5l-0.1-1.6h0c-0.5,1-1.7,1.8-3.2,1.8c-2.3,0-4-1.9-4-4.7
				c0-3.1,1.9-5,4.2-5c1.4,0,2.4,0.7,2.8,1.4h0v-5.6H-1303.4z M-1305.1,93.5c0-0.2,0-0.5-0.1-0.7c-0.2-1.1-1.2-2-2.4-2
				c-1.7,0-2.8,1.5-2.8,3.6c0,1.9,0.9,3.4,2.7,3.4c1.1,0,2.2-0.8,2.5-2c0.1-0.2,0.1-0.5,0.1-0.7V93.5z"/>
		</g>
		<g>
			<path class="st7" d="M-1300.4,99v-8h-1.3v-1.3h1.3v-0.5c0-2.5,1.4-4.1,4.1-4.1c0.9,0,1.9,0.3,2.4,0.6l-0.5,1.3
				c-0.4-0.3-1.1-0.5-2-0.5c-1.8,0-2.3,1.3-2.3,2.7v0.5h5.4V99h-1.7v-8h-3.7v8H-1300.4z"/>
		</g>
		<g>
			<path class="st7" d="M-1290.5,92.6c0-1.1,0-2-0.1-2.9h1.5l0.1,1.8h0.1c0.4-1.2,1.4-2,2.6-2c0.2,0,0.3,0,0.5,0.1v1.6
				c-0.2,0-0.3-0.1-0.6-0.1c-1.2,0-2,0.9-2.3,2.2c0,0.2-0.1,0.5-0.1,0.8v5h-1.7V92.6z"/>
		</g>
		<g>
			<path class="st7" d="M-1284.1,92.2c0-1,0-1.8-0.1-2.5h1.5l0.1,1.5h0.1c0.5-0.9,1.4-1.7,2.9-1.7c1.3,0,2.2,0.8,2.6,1.9h0
				c0.3-0.5,0.7-0.9,1-1.2c0.6-0.4,1.2-0.7,2.1-0.7c1.2,0,3.1,0.8,3.1,4V99h-1.7v-5.3c0-1.8-0.7-2.9-2-2.9c-1,0-1.7,0.7-2,1.5
				c-0.1,0.2-0.1,0.5-0.1,0.8V99h-1.7v-5.6c0-1.5-0.7-2.6-1.9-2.6c-1.1,0-1.8,0.8-2.1,1.7c-0.1,0.3-0.1,0.5-0.1,0.8V99h-1.7V92.2z"
				/>
		</g>
		<g>
			<path class="st7" d="M-1268.3,97.3c0.5,0.3,1.4,0.7,2.2,0.7c1.2,0,1.8-0.6,1.8-1.4c0-0.8-0.5-1.3-1.7-1.7
				c-1.7-0.6-2.5-1.5-2.5-2.6c0-1.5,1.2-2.7,3.2-2.7c0.9,0,1.8,0.3,2.3,0.6l-0.4,1.2c-0.4-0.2-1-0.5-1.9-0.5c-1,0-1.6,0.6-1.6,1.3
				c0,0.8,0.6,1.1,1.8,1.6c1.6,0.6,2.4,1.4,2.4,2.8c0,1.6-1.3,2.8-3.5,2.8c-1,0-2-0.3-2.6-0.6L-1268.3,97.3z"/>
		</g>
		<g>
			<path class="st7" d="M-1261.1,98c0-0.7,0.5-1.2,1.2-1.2c0.7,0,1.1,0.5,1.1,1.2c0,0.7-0.4,1.2-1.2,1.2
				C-1260.6,99.2-1261.1,98.7-1261.1,98z"/>
		</g>
		<g>
			<path class="st7" d="M-1250,98.7c-0.4,0.2-1.4,0.5-2.7,0.5c-2.8,0-4.6-1.9-4.6-4.7c0-2.9,2-4.9,5-4.9c1,0,1.9,0.3,2.3,0.5
				l-0.4,1.3c-0.4-0.2-1-0.4-2-0.4c-2.1,0-3.3,1.6-3.3,3.5c0,2.2,1.4,3.5,3.2,3.5c1,0,1.6-0.2,2.1-0.5L-1250,98.7z"/>
		</g>
		<g>
			<path class="st7" d="M-1239.8,94.3c0,3.4-2.4,4.9-4.6,4.9c-2.5,0-4.5-1.8-4.5-4.8c0-3.1,2-4.9,4.6-4.9
				C-1241.6,89.5-1239.8,91.5-1239.8,94.3z M-1247.1,94.4c0,2,1.2,3.6,2.8,3.6c1.6,0,2.8-1.5,2.8-3.6c0-1.6-0.8-3.6-2.8-3.6
				C-1246.3,90.8-1247.1,92.6-1247.1,94.4z"/>
		</g>
	</g>
	<g>
		<g class="st8">
			<g>
				<path class="st9" d="M-1334-151.7c-0.1-0.4-0.4-0.6-0.8-0.6l-5.1-0.5l-2-4.7c-0.1-0.3-0.5-0.6-0.9-0.6s-0.7,0.2-0.9,0.6l-2,4.7
					l-5.1,0.5c-0.4,0-0.7,0.3-0.8,0.6c-0.1,0.4,0,0.8,0.3,1l3.9,3.4l-1.1,5c-0.1,0.4,0.1,0.8,0.4,1c0.2,0.1,0.4,0.2,0.6,0.2
					c0.2,0,0.3,0,0.5-0.1l4.4-2.6l4.4,2.6c0.3,0.2,0.7,0.2,1,0c0.3-0.2,0.5-0.6,0.4-1l-1.1-5l3.9-3.4
					C-1334-151-1333.9-151.4-1334-151.7L-1334-151.7z"/>
			</g>
		</g>
		<g class="st8">
			<g>
				<path class="st9" d="M-1232.1-151.7c-0.1-0.4-0.4-0.6-0.8-0.6l-5.1-0.5l-2-4.7c-0.1-0.3-0.5-0.6-0.9-0.6c-0.4,0-0.7,0.2-0.9,0.6
					l-2,4.7l-5.1,0.5c-0.4,0-0.7,0.3-0.8,0.6c-0.1,0.4,0,0.8,0.3,1l3.9,3.4l-1.1,5c-0.1,0.4,0.1,0.8,0.4,1c0.2,0.1,0.4,0.2,0.6,0.2
					c0.2,0,0.3,0,0.5-0.1l4.4-2.6l4.4,2.6c0.3,0.2,0.7,0.2,1,0c0.3-0.2,0.5-0.6,0.4-1l-1.1-5l3.9-3.4
					C-1232.1-151-1231.9-151.4-1232.1-151.7L-1232.1-151.7z"/>
			</g>
		</g>
		<g class="st10">
			<g>
				<path class="st9" d="M-1308.7-157.3c-0.2-0.5-0.7-0.9-1.2-1l-7.8-0.7l-3.1-7.2c-0.2-0.5-0.7-0.9-1.3-0.9s-1.1,0.3-1.3,0.9
					l-3.1,7.2l-7.8,0.7c-0.6,0.1-1.1,0.4-1.2,1c-0.2,0.5,0,1.2,0.4,1.5l5.9,5.2l-1.7,7.7c-0.1,0.6,0.1,1.1,0.6,1.5
					c0.3,0.2,0.5,0.3,0.8,0.3c0.3,0,0.5-0.1,0.7-0.2l6.7-4l6.7,4c0.5,0.3,1.1,0.3,1.6-0.1c0.5-0.3,0.7-0.9,0.6-1.5l-1.7-7.7l5.9-5.2
					C-1308.7-156.2-1308.5-156.8-1308.7-157.3L-1308.7-157.3z"/>
			</g>
		</g>
		<g class="st10">
			<g>
				<path class="st9" d="M-1248.1-157.3c-0.2-0.5-0.7-0.9-1.2-1l-7.8-0.7l-3.1-7.2c-0.2-0.5-0.7-0.9-1.3-0.9s-1.1,0.3-1.3,0.9
					l-3.1,7.2l-7.8,0.7c-0.6,0.1-1.1,0.4-1.2,1c-0.2,0.5,0,1.2,0.4,1.5l5.9,5.2l-1.7,7.7c-0.1,0.6,0.1,1.1,0.6,1.5
					c0.3,0.2,0.5,0.3,0.8,0.3c0.3,0,0.5-0.1,0.7-0.2l6.7-4l6.7,4c0.5,0.3,1.1,0.3,1.6-0.1c0.5-0.3,0.7-0.9,0.6-1.5l-1.7-7.7l5.9-5.2
					C-1248.1-156.2-1247.9-156.8-1248.1-157.3L-1248.1-157.3z"/>
			</g>
		</g>
		<g>
			<g>
				<path class="st9" d="M-1271.6-165.4c-0.3-0.8-1-1.4-1.9-1.5l-11.7-1.1l-4.6-10.9c-0.3-0.8-1.1-1.3-2-1.3s-1.6,0.5-2,1.3
					l-4.6,10.9l-11.7,1.1c-0.9,0.1-1.6,0.7-1.9,1.5c-0.3,0.8,0,1.7,0.6,2.3l8.9,7.8l-2.6,11.5c-0.2,0.8,0.1,1.7,0.8,2.2
					c0.4,0.3,0.8,0.4,1.3,0.4c0.4,0,0.8-0.1,1.1-0.3l10.1-6l10.1,6c0.7,0.4,1.7,0.4,2.4-0.1c0.7-0.5,1-1.4,0.8-2.2l-2.6-11.5
					l8.9-7.8C-1271.6-163.7-1271.3-164.6-1271.6-165.4L-1271.6-165.4z"/>
			</g>
		</g>
	</g>
</g>
<g>
	<g>
		<path d="M-3344,822.6c0,4.5-0.8,8.4-2.4,11.8s-3.9,6-6.8,7.8c-3,1.8-6.3,2.8-10.2,2.8c-3.8,0-7.2-0.9-10.1-2.7
			c-3-1.8-5.3-4.4-6.9-7.8c-1.6-3.4-2.5-7.3-2.5-11.6l0-2.3c0-4.5,0.8-8.4,2.4-11.9c1.6-3.4,3.9-6,6.9-7.9c3-1.8,6.3-2.7,10.1-2.7
			c3.8,0,7.2,0.9,10.1,2.7c3,1.8,5.2,4.4,6.9,7.9c1.6,3.4,2.4,7.4,2.4,11.8L-3344,822.6z M-3353.5,820.6c0-4.8-0.9-8.4-2.6-10.9
			c-1.7-2.5-4.2-3.7-7.3-3.7c-3.2,0-5.6,1.2-7.3,3.7c-1.7,2.5-2.6,6.1-2.6,10.8l0,2.2c0,4.7,0.9,8.3,2.6,10.8
			c1.7,2.6,4.2,3.9,7.4,3.9c3.2,0,5.6-1.2,7.3-3.7c1.7-2.5,2.5-6.1,2.6-10.8L-3353.5,820.6z"/>
		<path d="M-3321,833.1l10.3-34.3l10.5,0l-15.9,45.6l-9.8,0l-15.8-45.6l10.4,0L-3321,833.1z"/>
		<path d="M-3268.4,824.6l-18,0l0,12.2l21.2,0l0,7.6l-30.6,0l0-45.6l30.5,0l0,7.6l-21.1,0l0,10.9l18,0L-3268.4,824.6z"/>
		<path d="M-3242.9,827.7l-7.5,0l0,16.7l-9.4,0l0-45.6l17,0c5.4,0,9.5,1.2,12.5,3.6c2.9,2.4,4.4,5.8,4.4,10.2c0,3.1-0.7,5.7-2,7.8
			c-1.3,2.1-3.4,3.7-6.1,5l9.9,18.6v0.4l-10.1,0L-3242.9,827.7z M-3250.4,820.1l7.6,0c2.4,0,4.2-0.6,5.5-1.8c1.3-1.2,1.9-2.9,1.9-5
			c0-2.2-0.6-3.8-1.8-5.1c-1.2-1.2-3.1-1.8-5.6-1.8l-7.6,0L-3250.4,820.1z"/>
		<path d="M-3193.1,835l-16.5,0l-3.1,9.4l-10,0l17-45.6l8.7,0l17.1,45.6l-10,0L-3193.1,835z M-3207,827.4l11.4,0l-5.7-17.1
			L-3207,827.4z"/>
		<path d="M-3166.2,836.8l20,0l0,7.6l-29.4,0l0-45.6l9.4,0L-3166.2,836.8z"/>
		<path d="M-3131.5,836.8l20,0l0,7.6l-29.4,0l0-45.6l9.4,0L-3131.5,836.8z"/>
		<path d="M-3073.3,827.6l-7.5,0l0,16.7l-9.4,0l0-45.6l17,0c5.4,0,9.5,1.2,12.5,3.6c2.9,2.4,4.4,5.8,4.4,10.2c0,3.1-0.7,5.7-2,7.8
			c-1.3,2.1-3.4,3.7-6.1,5l9.9,18.6v0.4l-10.1,0L-3073.3,827.6z M-3080.8,820l7.6,0c2.4,0,4.2-0.6,5.5-1.8c1.3-1.2,1.9-2.9,1.9-5
			c0-2.2-0.6-3.8-1.8-5.1c-1.2-1.2-3.1-1.8-5.6-1.8l-7.6,0L-3080.8,820z"/>
		<path d="M-3023.5,834.9l-16.5,0l-3.1,9.4l-10,0l17-45.6l8.7,0l17.1,45.6l-10,0L-3023.5,834.9z M-3037.4,827.3l11.4,0l-5.7-17.1
			L-3037.4,827.3z"/>
		<path d="M-2975.5,806.3l-14,0l0,38l-9.4,0l0-38l-13.8,0l0-7.6l37.2,0L-2975.5,806.3z"/>
		<path d="M-2960.1,844.3l-9.4,0l0-45.6l9.4,0L-2960.1,844.3z"/>
		<path d="M-2914.3,844.3l-9.4,0l-18.3-30l0,30l-9.4,0l0-45.6l9.4,0l18.3,30.1l0-30.1l9.4,0L-2914.3,844.3z"/>
		<path d="M-2870,838.5c-1.7,2-4.1,3.6-7.2,4.7c-3.1,1.1-6.5,1.7-10.3,1.7c-3.9,0-7.4-0.9-10.4-2.6c-3-1.7-5.3-4.2-6.9-7.5
			c-1.6-3.3-2.5-7.1-2.5-11.6l0-3.1c0-4.6,0.8-8.5,2.3-11.8c1.5-3.3,3.7-5.9,6.6-7.6c2.9-1.8,6.3-2.6,10.2-2.7
			c5.4,0,9.6,1.3,12.7,3.9c3.1,2.6,4.9,6.3,5.4,11.3l-9.2,0c-0.4-2.6-1.3-4.5-2.8-5.7c-1.4-1.2-3.4-1.8-5.9-1.8
			c-3.2,0-5.6,1.2-7.3,3.6c-1.7,2.4-2.5,6-2.5,10.7l0,2.9c0,4.8,0.9,8.4,2.7,10.8c1.8,2.4,4.5,3.7,8,3.7c3.5,0,6-0.8,7.6-2.3l0-7.9
			l-8.6,0l0-6.9l18,0L-2870,838.5z"/>
	</g>
</g>
<g>
	<g>
		<path class="st11" d="M-3549.3,1159.6c0,2.9-0.5,5.5-1.4,7.6c-0.9,2.1-2.2,3.8-3.9,5l5.4,4.3l-2.7,2.5l-6.4-5.1
			c-1,0.3-2.1,0.4-3.2,0.4c-2.4,0-4.5-0.6-6.4-1.8c-1.9-1.2-3.3-2.9-4.3-5c-1-2.2-1.6-4.7-1.6-7.6l0-2.2c0-2.9,0.5-5.5,1.5-7.8
			c1-2.2,2.5-4,4.3-5.2c1.9-1.2,4-1.8,6.4-1.8c2.5,0,4.6,0.6,6.5,1.8c1.9,1.2,3.3,2.9,4.3,5.1c1,2.2,1.5,4.8,1.5,7.8L-3549.3,1159.6
			z M-3553.3,1157.6c0-3.6-0.7-6.3-2.1-8.3c-1.4-1.9-3.5-2.9-6.1-2.9c-2.5,0-4.5,1-6,2.9c-1.5,1.9-2.2,4.6-2.2,8l0,2.2
			c0,3.5,0.7,6.2,2.2,8.2c1.5,2,3.5,3,6.1,3c2.6,0,4.6-0.9,6-2.8c1.4-1.9,2.2-4.6,2.2-8.1L-3553.3,1157.6z"/>
		<path class="st11" d="M-3529.8,1171.5c-1.5,1.8-3.7,2.7-6.6,2.7c-2.4,0-4.2-0.7-5.5-2.1c-1.3-1.4-1.9-3.5-1.9-6.2l0-14.7l3.9,0
			l0,14.6c0,3.4,1.4,5.1,4.2,5.1c3,0,4.9-1.1,5.9-3.3l0-16.4l3.9,0l0,22.6l-3.7,0L-3529.8,1171.5z"/>
		<path class="st11" d="M-3506.2,1173.8c-0.2-0.4-0.4-1.2-0.5-2.4c-1.8,1.9-3.9,2.8-6.4,2.8c-2.2,0-4.1-0.6-5.5-1.9
			c-1.4-1.3-2.1-2.9-2.1-4.8c0-2.4,0.9-4.2,2.7-5.5c1.8-1.3,4.3-2,7.6-2l3.8,0l0-1.8c0-1.4-0.4-2.4-1.2-3.2c-0.8-0.8-2-1.2-3.6-1.2
			c-1.4,0-2.5,0.3-3.5,1c-0.9,0.7-1.4,1.5-1.4,2.5l-3.9,0c0-1.1,0.4-2.2,1.2-3.3c0.8-1.1,1.9-1.9,3.3-2.5c1.4-0.6,2.9-0.9,4.5-0.9
			c2.6,0,4.6,0.7,6.1,2c1.5,1.3,2.2,3.1,2.3,5.4l0,10.4c0,2.1,0.3,3.7,0.8,5v0.3L-3506.2,1173.8z M-3512.6,1170.8
			c1.2,0,2.4-0.3,3.4-0.9c1.1-0.6,1.9-1.4,2.4-2.4l0-4.6l-3,0c-4.7,0-7.1,1.4-7.1,4.2c0,1.2,0.4,2.2,1.2,2.8
			C-3514.9,1170.5-3513.9,1170.8-3512.6,1170.8z"/>
		<path class="st11" d="M-3492.7,1173.8l-3.9,0l0-32.1l3.9,0L-3492.7,1173.8z"/>
		<path class="st11" d="M-3486.5,1145.2c0-0.6,0.2-1.2,0.6-1.6c0.4-0.4,1-0.6,1.7-0.6c0.8,0,1.3,0.2,1.7,0.6c0.4,0.4,0.6,1,0.6,1.6
			c0,0.6-0.2,1.1-0.6,1.6c-0.4,0.4-1,0.6-1.7,0.6c-0.8,0-1.3-0.2-1.7-0.6C-3486.3,1146.3-3486.5,1145.8-3486.5,1145.2z
			 M-3482.3,1173.8l-3.9,0l0-22.6l3.9,0L-3482.3,1173.8z"/>
		<path class="st11" d="M-3470.9,1145.7l0,5.5l4.2,0l0,3l-4.2,0l0,14c0,0.9,0.2,1.6,0.6,2c0.4,0.5,1,0.7,1.9,0.7
			c0.4,0,1.1-0.1,1.8-0.3l0,3.1c-1,0.3-2,0.4-3,0.4c-1.7,0-3-0.5-3.9-1.6c-0.9-1-1.3-2.5-1.3-4.4l0-14l-4.1,0l0-3l4.1,0l0-5.5
			L-3470.9,1145.7z"/>
		<path class="st11" d="M-3454.7,1168.1l5.3-16.9l4.1,0l-9.1,26.1c-1.4,3.8-3.6,5.6-6.7,5.6l-0.7-0.1l-1.4-0.3l0-3.1l1,0.1
			c1.3,0,2.3-0.3,3.1-0.8s1.3-1.5,1.8-2.9l0.9-2.3l-8.1-22.4l4.2,0L-3454.7,1168.1z"/>
		<path class="st11" d="M-3416.8,1179.4l-3.1,0l0-36.1l3.1,0L-3416.8,1179.4z"/>
		<path class="st11" d="M-3379.5,1160.2c-3.4-1-5.9-2.2-7.5-3.6c-1.6-1.4-2.4-3.2-2.4-5.3c0-2.4,1-4.4,2.9-5.9
			c1.9-1.6,4.4-2.4,7.5-2.4c2.1,0,4,0.4,5.6,1.2c1.6,0.8,2.9,1.9,3.8,3.3c0.9,1.4,1.3,3,1.3,4.7l-4,0c0-1.8-0.6-3.3-1.8-4.3
			c-1.2-1.1-2.8-1.6-5-1.6c-2,0-3.5,0.4-4.6,1.3c-1.1,0.9-1.7,2.1-1.7,3.6c0,1.2,0.5,2.3,1.6,3.1c1.1,0.9,2.8,1.6,5.4,2.4
			c2.5,0.7,4.5,1.5,5.9,2.4c1.4,0.9,2.5,1.9,3.2,3c0.7,1.1,1,2.5,1,4c0,2.5-1,4.4-2.9,5.9c-1.9,1.5-4.5,2.2-7.7,2.2
			c-2.1,0-4-0.4-5.8-1.2c-1.8-0.8-3.2-1.9-4.2-3.3c-1-1.4-1.5-3-1.5-4.7l4,0c0,1.8,0.7,3.3,2,4.4c1.4,1.1,3.2,1.6,5.4,1.6
			c2.1,0,3.7-0.4,4.9-1.3c1.1-0.9,1.7-2,1.7-3.5c0-1.5-0.5-2.6-1.6-3.5C-3374.9,1161.8-3376.8,1161-3379.5,1160.2z"/>
		<path class="st11" d="M-3354.6,1171c1.4,0,2.6-0.4,3.6-1.3c1-0.8,1.6-1.9,1.7-3.1l3.7,0c-0.1,1.3-0.5,2.5-1.3,3.7
			c-0.8,1.2-1.9,2.1-3.3,2.8c-1.4,0.7-2.8,1-4.4,1c-3.1,0-5.5-1-7.3-3.1c-1.8-2.1-2.7-4.9-2.7-8.4l0-0.6c0-2.2,0.4-4.2,1.2-5.9
			c0.8-1.7,2-3,3.5-4c1.5-0.9,3.3-1.4,5.4-1.4c2.5,0,4.6,0.8,6.3,2.3c1.7,1.5,2.6,3.5,2.7,5.9l-3.7,0c-0.1-1.5-0.7-2.7-1.7-3.6
			c-1-0.9-2.2-1.4-3.7-1.4c-2,0-3.5,0.7-4.6,2.1c-1.1,1.4-1.6,3.5-1.6,6.1v0.7c0,2.6,0.5,4.6,1.6,6
			C-3358.2,1170.3-3356.6,1171-3354.6,1171z"/>
		<path class="st11" d="M-3337.4,1153.9c1.7-2.1,3.9-3.2,6.7-3.2c4.8,0,7.2,2.7,7.2,8.1l0,14.9l-3.9,0l0-15c0-1.6-0.4-2.8-1.1-3.6
			c-0.7-0.8-1.9-1.2-3.4-1.2c-1.3,0-2.4,0.3-3.3,1c-0.9,0.7-1.7,1.5-2.2,2.6l0,16.1l-3.9,0l0-32.1l3.9,0L-3337.4,1153.9z"/>
		<path class="st11" d="M-3308.4,1174.1c-3.1,0-5.6-1-7.5-3c-1.9-2-2.9-4.7-2.9-8.1v-0.7c0-2.2,0.4-4.2,1.3-6
			c0.9-1.8,2.1-3.1,3.6-4.1c1.5-1,3.2-1.5,5-1.5c2.9,0,5.2,1,6.9,2.9c1.6,1.9,2.4,4.7,2.4,8.3l0,1.6l-15.3,0c0.1,2.2,0.7,4,2,5.4
			c1.2,1.4,2.8,2.1,4.8,2.1c1.4,0,2.5-0.3,3.5-0.8s1.8-1.3,2.5-2.2l2.4,1.8C-3301.7,1172.7-3304.6,1174.1-3308.4,1174.1z
			 M-3308.8,1153.9c-1.6,0-2.9,0.6-3.9,1.7c-1.1,1.1-1.7,2.7-2,4.8l11.3,0v-0.3c-0.1-2-0.6-3.5-1.6-4.6
			C-3305.9,1154.4-3307.2,1153.9-3308.8,1153.9z"/>
		<path class="st11" d="M-3296,1162.2c0-3.5,0.8-6.3,2.5-8.4c1.6-2.1,3.8-3.2,6.5-3.2c2.6,0,4.7,0.9,6.3,2.7l0-11.8l3.9,0l0,32.1
			l-3.6,0l-0.2-2.4c-1.5,1.9-3.7,2.8-6.5,2.8c-2.6,0-4.8-1.1-6.4-3.2c-1.7-2.1-2.5-4.9-2.5-8.4V1162.2z M-3292.1,1162.7
			c0,2.6,0.5,4.6,1.6,6c1.1,1.4,2.5,2.2,4.4,2.2c2.5,0,4.2-1.1,5.4-3.3l0-10.4c-1.2-2.1-2.9-3.2-5.3-3.2c-1.9,0-3.4,0.7-4.4,2.2
			C-3291.6,1157.6-3292.1,1159.8-3292.1,1162.7z"/>
		<path class="st11" d="M-3257,1171.5c-1.5,1.8-3.7,2.7-6.6,2.7c-2.4,0-4.2-0.7-5.5-2.1c-1.3-1.4-1.9-3.5-1.9-6.2l0-14.7l3.9,0
			l0,14.6c0,3.4,1.4,5.1,4.2,5.1c3,0,4.9-1.1,5.9-3.3l0-16.4l3.9,0l0,22.6l-3.7,0L-3257,1171.5z"/>
		<path class="st11" d="M-3243.2,1173.7l-3.9,0l0-32.1l3.9,0L-3243.2,1173.7z"/>
		<path class="st11" d="M-3227.6,1174.1c-3.1,0-5.6-1-7.5-3c-1.9-2-2.9-4.7-2.9-8.1v-0.7c0-2.2,0.4-4.2,1.3-6
			c0.9-1.8,2.1-3.1,3.6-4.1c1.5-1,3.2-1.5,5-1.5c2.9,0,5.2,1,6.9,2.9c1.6,1.9,2.4,4.7,2.4,8.3l0,1.6l-15.3,0c0.1,2.2,0.7,4,2,5.4
			c1.2,1.4,2.8,2.1,4.8,2.1c1.4,0,2.5-0.3,3.5-0.8c0.9-0.6,1.8-1.3,2.5-2.2l2.4,1.8C-3221,1172.7-3223.8,1174.1-3227.6,1174.1z
			 M-3228.1,1153.9c-1.6,0-2.9,0.6-3.9,1.7c-1.1,1.1-1.7,2.7-2,4.8l11.3,0v-0.3c-0.1-2-0.6-3.5-1.6-4.6
			C-3225.2,1154.4-3226.5,1153.9-3228.1,1153.9z"/>
		<path class="st11" d="M-3204.5,1165.5c0-1.5,0.4-2.8,1.2-4c0.8-1.2,2.4-2.7,4.7-4.3c-1.4-1.6-2.3-3-2.7-4c-0.5-1-0.7-2-0.7-3
			c0-2.3,0.7-4.1,2-5.4c1.4-1.3,3.2-2,5.6-2c2.1,0,3.8,0.6,5.2,1.8c1.4,1.2,2,2.8,2,4.6c0,1.2-0.3,2.4-0.9,3.4
			c-0.6,1-1.7,2.1-3.2,3.3l-2.2,1.7l6.8,8.1c0.9-1.8,1.4-3.8,1.4-6l3.5,0c0,3.6-0.9,6.5-2.6,8.8l4.3,5.2l-4.6,0l-2-2.4
			c-1,0.9-2.2,1.6-3.6,2.1c-1.4,0.5-2.8,0.7-4.2,0.7c-3,0-5.3-0.8-7.1-2.4S-3204.5,1168.1-3204.5,1165.5z M-3194.7,1171
			c2,0,3.9-0.8,5.6-2.3l-7.4-8.9l-0.7,0.5c-2.3,1.7-3.5,3.5-3.5,5.3c0,1.6,0.5,3,1.6,3.9C-3198,1170.5-3196.5,1171-3194.7,1171z
			 M-3198.2,1150.1c0,1.3,0.8,3,2.5,5l2.5-1.7c0.9-0.7,1.6-1.3,1.9-1.9c0.3-0.6,0.5-1.3,0.5-2.2c0-0.9-0.3-1.7-1-2.3
			c-0.7-0.6-1.6-0.9-2.6-0.9c-1.1,0-2,0.4-2.7,1.2C-3197.8,1148-3198.2,1148.9-3198.2,1150.1z"/>
		<path class="st11" d="M-3145.7,1146.5l-9.8,0l0,27.1l-4,0l0-27.1l-9.8,0l0-3.3l23.5,0L-3145.7,1146.5z"/>
		<path class="st11" d="M-3141.8,1145.1c0-0.6,0.2-1.2,0.6-1.6c0.4-0.4,1-0.6,1.7-0.6c0.8,0,1.3,0.2,1.7,0.6c0.4,0.4,0.6,1,0.6,1.6
			c0,0.6-0.2,1.1-0.6,1.6c-0.4,0.4-1,0.6-1.7,0.6c-0.8,0-1.3-0.2-1.7-0.6C-3141.6,1146.2-3141.8,1145.7-3141.8,1145.1z
			 M-3137.6,1173.7l-3.9,0l0-22.6l3.9,0L-3137.6,1173.7z"/>
		<path class="st11" d="M-3127.8,1151.1l0.1,2.5c1.7-2,3.9-2.9,6.7-2.9c3.2,0,5.3,1.2,6.5,3.6c0.8-1.1,1.7-2,2.9-2.6
			c1.2-0.7,2.6-1,4.3-1c5,0,7.5,2.6,7.6,7.9l0,15.1l-3.9,0l0-14.9c0-1.6-0.4-2.8-1.1-3.6c-0.7-0.8-2-1.2-3.7-1.2
			c-1.4,0-2.6,0.4-3.6,1.3c-0.9,0.9-1.5,2-1.6,3.5l0,15l-3.9,0l0-14.8c0-3.3-1.6-4.9-4.8-4.9c-2.5,0-4.3,1.1-5.2,3.2l0,16.5l-3.9,0
			l0-22.6L-3127.8,1151.1z"/>
		<path class="st11" d="M-3093.9,1145.1c0-0.6,0.2-1.2,0.6-1.6c0.4-0.4,1-0.6,1.7-0.6c0.8,0,1.3,0.2,1.7,0.6c0.4,0.4,0.6,1,0.6,1.6
			c0,0.6-0.2,1.1-0.6,1.6c-0.4,0.4-1,0.6-1.7,0.6c-0.8,0-1.3-0.2-1.7-0.6C-3093.7,1146.2-3093.9,1145.7-3093.9,1145.1z
			 M-3089.7,1173.7l-3.9,0l0-22.6l3.9,0L-3089.7,1173.7z"/>
		<path class="st11" d="M-3079.9,1151.1l0.1,2.8c1.7-2.2,4-3.3,6.8-3.3c4.8,0,7.2,2.7,7.2,8.1l0,14.9l-3.9,0l0-15
			c0-1.6-0.4-2.8-1.1-3.6c-0.7-0.8-1.9-1.2-3.4-1.2c-1.3,0-2.4,0.3-3.3,1c-0.9,0.7-1.7,1.5-2.2,2.6l0,16.1l-3.9,0l0-22.6
			L-3079.9,1151.1z"/>
		<path class="st11" d="M-3060.9,1162.2c0-3.5,0.8-6.3,2.4-8.4c1.6-2.1,3.8-3.1,6.5-3.1c2.8,0,4.9,1,6.5,2.9l0.2-2.5l3.5,0l0,22.1
			c0,2.9-0.9,5.2-2.6,6.9c-1.7,1.7-4.1,2.5-7,2.5c-1.6,0-3.2-0.3-4.8-1c-1.6-0.7-2.8-1.6-3.6-2.9l2-2.3c1.7,2,3.7,3.1,6.1,3.1
			c1.9,0,3.3-0.5,4.4-1.6c1.1-1.1,1.6-2.5,1.6-4.5l0-1.9c-1.5,1.8-3.7,2.7-6.3,2.7c-2.6,0-4.8-1.1-6.4-3.2
			C-3060,1168.7-3060.9,1165.8-3060.9,1162.2z M-3057,1162.6c0,2.5,0.5,4.6,1.6,6c1,1.5,2.5,2.2,4.4,2.2c2.4,0,4.2-1.1,5.4-3.3
			l0-10.3c-1.2-2.2-3-3.2-5.3-3.2c-1.9,0-3.3,0.7-4.4,2.2C-3056.5,1157.6-3057,1159.7-3057,1162.6z"/>
		<path class="st11" d="M-3010.9,1179.3l-3.1,0l0-36.1l3.1,0L-3010.9,1179.3z"/>
		<path class="st11" d="M-2960.2,1164c-0.4,3.2-1.6,5.7-3.6,7.4c-2,1.7-4.7,2.6-8,2.6c-3.6,0-6.5-1.3-8.6-3.9
			c-2.2-2.6-3.3-6-3.3-10.3l0-2.9c0-2.8,0.5-5.3,1.5-7.5c1-2.1,2.4-3.8,4.3-4.9c1.9-1.1,4-1.7,6.4-1.7c3.2,0,5.8,0.9,7.8,2.7
			c2,1.8,3.1,4.3,3.4,7.5l-4,0c-0.3-2.4-1.1-4.2-2.3-5.3c-1.2-1.1-2.8-1.6-4.9-1.6c-2.6,0-4.6,0.9-6,2.8c-1.5,1.9-2.2,4.6-2.2,8.1
			l0,2.9c0,3.3,0.7,5.9,2.1,7.9c1.4,2,3.3,2.9,5.8,2.9c2.2,0,3.9-0.5,5.1-1.5s2-2.8,2.4-5.3L-2960.2,1164z"/>
		<path class="st11" d="M-2956.3,1162.1c0-2.2,0.4-4.2,1.3-6c0.9-1.8,2.1-3.1,3.6-4.1s3.3-1.4,5.3-1.4c3.1,0,5.6,1.1,7.5,3.2
			c1.9,2.1,2.9,5,2.9,8.5v0.3c0,2.2-0.4,4.2-1.3,5.9c-0.8,1.7-2,3.1-3.6,4.1c-1.6,1-3.4,1.5-5.4,1.5c-3.1,0-5.5-1.1-7.4-3.2
			c-1.9-2.1-2.9-5-2.9-8.5V1162.1z M-2952.4,1162.6c0,2.5,0.6,4.5,1.7,6c1.2,1.5,2.7,2.3,4.7,2.3c2,0,3.5-0.8,4.7-2.3
			c1.2-1.5,1.7-3.7,1.7-6.5c0-2.5-0.6-4.5-1.8-6c-1.2-1.5-2.7-2.3-4.7-2.3c-1.9,0-3.4,0.8-4.6,2.3
			C-2951.9,1157.6-2952.4,1159.7-2952.4,1162.6z"/>
		<path class="st11" d="M-2927.3,1151l0.1,2.5c1.7-2,3.9-2.9,6.7-2.9c3.2,0,5.3,1.2,6.5,3.6c0.8-1.1,1.7-2,2.9-2.6
			c1.2-0.7,2.6-1,4.3-1c5,0,7.5,2.6,7.6,7.9l0,15.1l-3.9,0l0-14.9c0-1.6-0.4-2.8-1.1-3.6c-0.7-0.8-2-1.2-3.7-1.2
			c-1.4,0-2.6,0.4-3.6,1.3c-0.9,0.9-1.5,2-1.6,3.5l0,15l-3.9,0l0-14.8c0-3.3-1.6-4.9-4.8-4.9c-2.5,0-4.3,1.1-5.2,3.2l0,16.5l-3.9,0
			l0-22.6L-2927.3,1151z"/>
		<path class="st11" d="M-2889.8,1151l0.1,2.5c1.7-2,3.9-2.9,6.7-2.9c3.2,0,5.3,1.2,6.5,3.6c0.8-1.1,1.7-2,2.9-2.6
			c1.2-0.7,2.6-1,4.3-1c5,0,7.5,2.6,7.6,7.9l0,15.1l-3.9,0l0-14.9c0-1.6-0.4-2.8-1.1-3.6c-0.7-0.8-2-1.2-3.7-1.2
			c-1.4,0-2.6,0.4-3.6,1.3c-0.9,0.9-1.5,2-1.6,3.5l0,15l-3.9,0l0-14.8c0-3.3-1.6-4.9-4.8-4.9c-2.5,0-4.3,1.1-5.2,3.2l0,16.5l-3.9,0
			l0-22.6L-2889.8,1151z"/>
		<path class="st11" d="M-2841.9,1171.4c-1.5,1.8-3.7,2.7-6.6,2.7c-2.4,0-4.2-0.7-5.5-2.1c-1.3-1.4-1.9-3.5-1.9-6.2l0-14.7l3.9,0
			l0,14.6c0,3.4,1.4,5.1,4.2,5.1c3,0,4.9-1.1,5.9-3.3l0-16.4l3.9,0l0,22.6l-3.7,0L-2841.9,1171.4z"/>
		<path class="st11" d="M-2828.7,1151l0.1,2.8c1.7-2.2,4-3.3,6.8-3.3c4.8,0,7.2,2.7,7.2,8.1l0,14.9l-3.9,0l0-15
			c0-1.6-0.4-2.8-1.1-3.6c-0.7-0.8-1.9-1.2-3.4-1.2c-1.3,0-2.4,0.3-3.3,1c-0.9,0.7-1.7,1.5-2.2,2.6l0,16.1l-3.9,0l0-22.6
			L-2828.7,1151z"/>
		<path class="st11" d="M-2808.7,1145c0-0.6,0.2-1.2,0.6-1.6c0.4-0.4,1-0.6,1.7-0.6c0.8,0,1.3,0.2,1.7,0.6c0.4,0.4,0.6,1,0.6,1.6
			c0,0.6-0.2,1.1-0.6,1.6c-0.4,0.4-1,0.6-1.7,0.6c-0.8,0-1.3-0.2-1.7-0.6C-2808.5,1146.1-2808.7,1145.6-2808.7,1145z
			 M-2804.5,1173.6l-3.9,0l0-22.6l3.9,0L-2804.5,1173.6z"/>
		<path class="st11" d="M-2789.2,1170.8c1.4,0,2.6-0.4,3.6-1.3c1-0.8,1.6-1.9,1.7-3.1l3.7,0c-0.1,1.3-0.5,2.5-1.3,3.7
			c-0.8,1.2-1.9,2.1-3.3,2.8c-1.4,0.7-2.8,1-4.4,1c-3.1,0-5.5-1-7.3-3.1c-1.8-2.1-2.7-4.9-2.7-8.4l0-0.6c0-2.2,0.4-4.2,1.2-5.9
			c0.8-1.7,2-3,3.5-4c1.5-0.9,3.3-1.4,5.4-1.4c2.5,0,4.6,0.8,6.3,2.3s2.6,3.5,2.7,5.9l-3.7,0c-0.1-1.5-0.7-2.7-1.7-3.6
			c-1-0.9-2.2-1.4-3.7-1.4c-2,0-3.5,0.7-4.6,2.1c-1.1,1.4-1.6,3.5-1.6,6.1v0.7c0,2.6,0.5,4.6,1.6,6
			C-2792.8,1170.1-2791.2,1170.8-2789.2,1170.8z"/>
		<path class="st11" d="M-2762,1173.6c-0.2-0.4-0.4-1.2-0.5-2.4c-1.8,1.9-3.9,2.8-6.4,2.8c-2.2,0-4.1-0.6-5.5-1.9
			c-1.4-1.3-2.1-2.9-2.1-4.8c0-2.4,0.9-4.2,2.7-5.5c1.8-1.3,4.3-2,7.6-2l3.8,0l0-1.8c0-1.4-0.4-2.4-1.2-3.2c-0.8-0.8-2-1.2-3.6-1.2
			c-1.4,0-2.5,0.3-3.5,1c-0.9,0.7-1.4,1.5-1.4,2.5l-3.9,0c0-1.1,0.4-2.2,1.2-3.3c0.8-1.1,1.9-1.9,3.3-2.5c1.4-0.6,2.9-0.9,4.5-0.9
			c2.6,0,4.6,0.7,6.1,2c1.5,1.3,2.2,3.1,2.3,5.4l0,10.4c0,2.1,0.3,3.7,0.8,5v0.3L-2762,1173.6z M-2768.4,1170.6
			c1.2,0,2.4-0.3,3.4-0.9c1.1-0.6,1.9-1.4,2.4-2.4l0-4.6l-3,0c-4.7,0-7.1,1.4-7.1,4.2c0,1.2,0.4,2.2,1.2,2.8
			C-2770.7,1170.3-2769.6,1170.6-2768.4,1170.6z"/>
		<path class="st11" d="M-2747.4,1145.5l0,5.5l4.2,0l0,3l-4.2,0l0,14c0,0.9,0.2,1.6,0.6,2c0.4,0.5,1,0.7,1.9,0.7
			c0.4,0,1.1-0.1,1.8-0.3l0,3.1c-1,0.3-2,0.4-3,0.4c-1.7,0-3-0.5-3.9-1.6c-0.9-1-1.3-2.5-1.3-4.4l0-14l-4.1,0l0-3l4.1,0l0-5.5
			L-2747.4,1145.5z"/>
		<path class="st11" d="M-2738.6,1145c0-0.6,0.2-1.2,0.6-1.6c0.4-0.4,1-0.6,1.7-0.6c0.8,0,1.3,0.2,1.7,0.6c0.4,0.4,0.6,1,0.6,1.6
			c0,0.6-0.2,1.1-0.6,1.6c-0.4,0.4-1,0.6-1.7,0.6c-0.8,0-1.3-0.2-1.7-0.6C-2738.5,1146.1-2738.6,1145.6-2738.6,1145z
			 M-2734.5,1173.6l-3.9,0l0-22.6l3.9,0L-2734.5,1173.6z"/>
		<path class="st11" d="M-2729.3,1162.1c0-2.2,0.4-4.2,1.3-6c0.9-1.8,2.1-3.1,3.6-4.1c1.6-1,3.3-1.4,5.3-1.4c3.1,0,5.6,1.1,7.5,3.2
			c1.9,2.1,2.9,5,2.9,8.5v0.3c0,2.2-0.4,4.2-1.3,5.9c-0.8,1.7-2,3.1-3.6,4.1c-1.6,1-3.4,1.5-5.4,1.5c-3.1,0-5.5-1.1-7.4-3.2
			c-1.9-2.1-2.9-5-2.9-8.5V1162.1z M-2725.4,1162.5c0,2.5,0.6,4.5,1.7,6c1.2,1.5,2.7,2.3,4.7,2.3c2,0,3.5-0.8,4.7-2.3
			c1.2-1.5,1.7-3.7,1.7-6.5c0-2.5-0.6-4.5-1.8-6c-1.2-1.5-2.7-2.3-4.7-2.3c-1.9,0-3.4,0.8-4.6,2.3
			C-2724.8,1157.5-2725.4,1159.7-2725.4,1162.5z"/>
		<path class="st11" d="M-2700.2,1151l0.1,2.8c1.7-2.2,4-3.3,6.8-3.3c4.8,0,7.2,2.7,7.2,8.1l0,14.9l-3.9,0l0-15
			c0-1.6-0.4-2.8-1.1-3.6c-0.7-0.8-1.9-1.2-3.4-1.2c-1.3,0-2.4,0.3-3.3,1c-0.9,0.7-1.7,1.5-2.2,2.6l0,16.1l-3.9,0l0-22.6
			L-2700.2,1151z"/>
	</g>
</g>
<path class="st6" d="M-2744.7,1036.6l-769.8,0.2c-21.1,0-38.1-17.1-38.1-38.1l0-71.5c0-21.1,17.1-38.1,38.1-38.1l769.8-0.2
	c21.1,0,38.1,17.1,38.1,38.1l0,71.5C-2706.5,1019.5-2723.6,1036.5-2744.7,1036.6z"/>
<g>
	<g>
		<path id="Combined-Shape" class="st12" d="M-3427.1,928l-9.9,20c-1,2.1-3,3.5-5.2,3.8l-22.1,3.2l16,15.6c1.5,1.4,2.2,3.4,2.1,5.4
			l-0.1,0.8l-3.8,22l19.8-10.4c1.8-0.9,3.9-1.1,5.8-0.3l0.7,0.3l19.8,10.4l-3.8-22c-0.3-2,0.2-4,1.5-5.6l0.5-0.6l16-15.6l-22.1-3.2
			c-2-0.3-3.8-1.5-4.9-3.2l-0.3-0.6L-3427.1,928z"/>
		<path id="star-empty" class="st9" d="M-3425.3,924.2l11.3,22.9c0.3,0.6,0.9,1,1.5,1.1l25.3,3.7c1.7,0.2,2.4,2.3,1.1,3.5
			l-18.3,17.8c-0.5,0.5-0.7,1.2-0.6,1.8l4.3,25.2c0.3,1.7-1.5,3-3,2.2l-22.6-11.9c-0.6-0.3-1.3-0.3-1.9,0l-22.6,11.9
			c-1.5,0.8-3.3-0.5-3-2.2l4.3-25.2c0.1-0.7-0.1-1.3-0.6-1.8l-18.3-17.8c-1.2-1.2-0.5-3.3,1.1-3.5l25.3-3.7c0.7-0.1,1.2-0.5,1.5-1.1
			l11.3-22.9C-3428.2,922.7-3426.1,922.7-3425.3,924.2z M-3427.1,930.5l-9.2,18.6c-0.9,1.9-2.8,3.2-4.9,3.5l-20.5,3l14.9,14.5
			c1.4,1.3,2.1,3.2,1.9,5l-0.1,0.7l-3.5,20.5l18.4-9.7c1.7-0.9,3.6-1,5.4-0.3l0.6,0.3l18.4,9.7l-3.5-20.5c-0.3-1.9,0.2-3.8,1.4-5.2
			l0.5-0.5l14.9-14.5l-20.5-3c-1.9-0.3-3.6-1.4-4.6-3l-0.3-0.6L-3427.1,930.5z"/>
	</g>
	<g>
		<path id="Combined-Shape_1_" class="st12" d="M-3313,928l-9.9,20c-1,2.1-3,3.5-5.2,3.8l-22.1,3.2l16,15.6c1.5,1.4,2.2,3.4,2.1,5.4
			l-0.1,0.8l-3.8,22l19.8-10.4c1.8-0.9,3.9-1.1,5.8-0.3l0.7,0.3l19.8,10.4l-3.8-22c-0.3-2,0.2-4,1.5-5.6l0.5-0.6l16-15.6l-22.1-3.2
			c-2-0.3-3.8-1.5-4.9-3.2l-0.3-0.6L-3313,928z"/>
		<path id="star-empty_6_" class="st9" d="M-3311.2,924.2l11.3,22.9c0.3,0.6,0.9,1,1.5,1.1l25.3,3.7c1.7,0.2,2.4,2.3,1.1,3.5
			l-18.3,17.8c-0.5,0.5-0.7,1.2-0.6,1.8l4.3,25.2c0.3,1.7-1.5,3-3,2.2l-22.6-11.9c-0.6-0.3-1.3-0.3-1.9,0l-22.6,11.9
			c-1.5,0.8-3.3-0.5-3-2.2l4.3-25.2c0.1-0.7-0.1-1.3-0.6-1.8l-18.3-17.8c-1.2-1.2-0.5-3.3,1.1-3.5l25.3-3.7c0.7-0.1,1.2-0.5,1.5-1.1
			l11.3-22.9C-3314.1,922.6-3311.9,922.6-3311.2,924.2z M-3313,930.4l-9.2,18.6c-0.9,1.9-2.8,3.2-4.9,3.5l-20.5,3l14.9,14.5
			c1.4,1.3,2.1,3.2,1.9,5l-0.1,0.7l-3.5,20.5l18.4-9.7c1.7-0.9,3.6-1,5.4-0.3l0.6,0.3l18.4,9.7l-3.5-20.5c-0.3-1.9,0.2-3.8,1.4-5.2
			l0.5-0.5l14.9-14.5l-20.5-3c-1.9-0.3-3.6-1.4-4.6-3l-0.3-0.6L-3313,930.4z"/>
	</g>
	<g>
		<path id="Combined-Shape_2_" class="st12" d="M-3198.9,927.9l-9.9,20c-1,2.1-3,3.5-5.2,3.8l-22.1,3.2l16,15.6
			c1.5,1.4,2.2,3.4,2.1,5.4l-0.1,0.8l-3.8,22l19.8-10.4c1.8-0.9,3.9-1.1,5.8-0.3l0.7,0.3l19.8,10.4l-3.8-22c-0.3-2,0.2-4,1.5-5.6
			l0.5-0.6l16-15.6l-22.1-3.2c-2-0.3-3.8-1.5-4.9-3.2l-0.3-0.6L-3198.9,927.9z"/>
		<path id="star-empty_7_" class="st9" d="M-3197.1,924.1l11.3,22.9c0.3,0.6,0.9,1,1.5,1.1l25.3,3.7c1.7,0.2,2.4,2.3,1.1,3.5
			l-18.3,17.8c-0.5,0.5-0.7,1.2-0.6,1.8l4.3,25.2c0.3,1.7-1.5,3-3,2.2l-22.6-11.9c-0.6-0.3-1.3-0.3-1.9,0l-22.6,11.9
			c-1.5,0.8-3.3-0.5-3-2.2l4.3-25.2c0.1-0.7-0.1-1.3-0.6-1.8l-18.3-17.8c-1.2-1.2-0.5-3.3,1.1-3.5l25.3-3.7c0.7-0.1,1.2-0.5,1.5-1.1
			l11.3-22.9C-3200,922.6-3197.8,922.6-3197.1,924.1z M-3198.9,930.4l-9.2,18.6c-0.9,1.9-2.8,3.2-4.9,3.5l-20.5,3l14.9,14.5
			c1.4,1.3,2.1,3.2,1.9,5l-0.1,0.7l-3.5,20.5l18.4-9.7c1.7-0.9,3.6-1,5.4-0.3l0.6,0.3l18.4,9.7l-3.5-20.5c-0.3-1.9,0.2-3.8,1.4-5.2
			l0.5-0.5l14.9-14.5l-20.5-3c-1.9-0.3-3.6-1.4-4.6-3l-0.3-0.6L-3198.9,930.4z"/>
	</g>
	<g>
		<path id="Combined-Shape_3_" class="st12" d="M-3084.8,927.9l-9.9,20c-1,2.1-3,3.5-5.2,3.8l-22.1,3.2l16,15.6
			c1.5,1.4,2.2,3.4,2.1,5.4l-0.1,0.8l-3.8,22l19.8-10.4c1.8-0.9,3.9-1.1,5.8-0.3l0.7,0.3l19.8,10.4l-3.8-22c-0.3-2,0.2-4,1.5-5.6
			l0.5-0.6l16-15.6l-22.1-3.2c-2-0.3-3.8-1.5-4.9-3.2l-0.3-0.6L-3084.8,927.9z"/>
		<path id="star-empty_8_" class="st9" d="M-3082.9,924.1l11.3,22.9c0.3,0.6,0.9,1,1.5,1.1l25.3,3.7c1.7,0.2,2.4,2.3,1.1,3.5
			l-18.3,17.8c-0.5,0.5-0.7,1.2-0.6,1.8l4.3,25.2c0.3,1.7-1.5,3-3,2.2l-22.6-11.9c-0.6-0.3-1.3-0.3-1.9,0l-22.6,11.9
			c-1.5,0.8-3.3-0.5-3-2.2l4.3-25.2c0.1-0.7-0.1-1.3-0.6-1.8l-18.3-17.8c-1.2-1.2-0.5-3.3,1.1-3.5l25.3-3.7c0.7-0.1,1.2-0.5,1.5-1.1
			l11.3-22.9C-3085.9,922.6-3083.7,922.6-3082.9,924.1z M-3084.8,930.4l-9.2,18.6c-0.9,1.9-2.8,3.2-4.9,3.5l-20.5,3l14.9,14.5
			c1.4,1.3,2.1,3.2,1.9,5l-0.1,0.7l-3.5,20.5l18.4-9.7c1.7-0.9,3.6-1,5.4-0.3l0.6,0.3l18.4,9.7l-3.5-20.5c-0.3-1.9,0.2-3.8,1.4-5.2
			l0.5-0.5l14.9-14.5l-20.5-3c-1.9-0.3-3.6-1.4-4.6-3l-0.3-0.6L-3084.8,930.4z"/>
	</g>
	<path id="star-empty_9_" class="st9" d="M-2968.8,924.1l11.3,22.9c0.3,0.6,0.9,1,1.5,1.1l25.3,3.7c1.7,0.2,2.4,2.3,1.1,3.5
		l-18.3,17.8c-0.5,0.5-0.7,1.2-0.6,1.8l4.3,25.2c0.3,1.7-1.5,3-3,2.2l-22.6-11.9c-0.6-0.3-1.3-0.3-1.9,0l-22.6,11.9
		c-1.5,0.8-3.3-0.5-3-2.2l4.3-25.2c0.1-0.7-0.1-1.3-0.6-1.8l-18.3-17.8c-1.2-1.2-0.5-3.3,1.1-3.5l25.3-3.7c0.7-0.1,1.2-0.5,1.5-1.1
		l11.3-22.9C-2971.8,922.5-2969.6,922.5-2968.8,924.1z M-2970.7,930.3l-9.2,18.6c-0.9,1.9-2.8,3.2-4.9,3.5l-20.5,3l14.9,14.5
		c1.4,1.3,2.1,3.2,1.9,5l-0.1,0.7l-3.5,20.5l18.4-9.7c1.7-0.9,3.6-1,5.4-0.3l0.6,0.3l18.4,9.7l-3.5-20.5c-0.3-1.9,0.2-3.8,1.4-5.2
		l0.5-0.5l14.9-14.5l-20.5-3c-1.9-0.3-3.6-1.4-4.6-3l-0.3-0.6L-2970.7,930.3z"/>
	<g>
		<g>
			<path d="M-2887,965.5l2.6-24l25.5,0l0,6.9l-18.9,0l-1.3,11.4c2.2-1.3,4.7-1.9,7.4-1.9c4.5,0,8.1,1.4,10.6,4.3
				c2.5,2.9,3.8,6.8,3.8,11.7c0,4.8-1.4,8.7-4.2,11.5c-2.8,2.9-6.6,4.3-11.5,4.3c-4.4,0-8-1.2-10.8-3.7c-2.9-2.5-4.4-5.7-4.7-9.8
				l7.7,0c0.3,2.3,1.1,4.1,2.5,5.3c1.4,1.2,3.1,1.8,5.3,1.8c2.4,0,4.3-0.9,5.7-2.6c1.4-1.7,2-4.1,2-7.1c0-2.9-0.8-5.2-2.3-6.9
				c-1.5-1.7-3.6-2.5-6.2-2.5c-1.4,0-2.7,0.2-3.7,0.6c-1,0.4-2.1,1.1-3.3,2.2L-2887,965.5z"/>
			<path d="M-2848.3,993.2l-6.2,0l18.7-51.6l6.2,0L-2848.3,993.2z"/>
			<path d="M-2822.5,965.5l2.6-24l25.5,0l0,6.9l-18.9,0l-1.3,11.4c2.2-1.3,4.7-1.9,7.4-1.9c4.5,0,8.1,1.4,10.6,4.3
				c2.5,2.9,3.8,6.8,3.8,11.7c0,4.8-1.4,8.7-4.2,11.5c-2.8,2.9-6.6,4.3-11.5,4.3c-4.4,0-8-1.2-10.8-3.7c-2.9-2.5-4.4-5.7-4.7-9.8
				l7.7,0c0.3,2.3,1.1,4.1,2.5,5.3c1.4,1.2,3.1,1.8,5.3,1.8c2.4,0,4.3-0.9,5.7-2.6c1.4-1.7,2-4.1,2-7.1c0-2.9-0.8-5.2-2.3-6.9
				c-1.5-1.7-3.6-2.5-6.2-2.5c-1.4,0-2.7,0.2-3.7,0.6c-1,0.4-2.1,1.1-3.3,2.2L-2822.5,965.5z"/>
		</g>
	</g>
	<g>
		<defs>
			<path id="star-empty_1_" d="M-2968.8,924.1l11.3,22.9c0.3,0.6,0.9,1,1.5,1.1l25.3,3.7c1.7,0.2,2.4,2.3,1.1,3.5l-18.3,17.8
				c-0.5,0.5-0.7,1.2-0.6,1.8l4.3,25.2c0.3,1.7-1.5,3-3,2.2l-22.6-11.9c-0.6-0.3-1.3-0.3-1.9,0l-22.6,11.9c-1.5,0.8-3.3-0.5-3-2.2
				l4.3-25.2c0.1-0.7-0.1-1.3-0.6-1.8l-18.3-17.8c-1.2-1.2-0.5-3.3,1.1-3.5l25.3-3.7c0.7-0.1,1.2-0.5,1.5-1.1l11.3-22.9
				C-2971.8,922.5-2969.6,922.5-2968.8,924.1z"/>
		</defs>
		<clipPath id="star-empty_2_">
			<use xlink:href="#star_x002D_empty_1_"  style="overflow:visible;"/>
		</clipPath>
		<rect x="-3013.6" y="916.6" class="st13" width="77.3" height="91.1"/>
	</g>
</g>
<g>
	<path class="st2" d="M-3510,190c0,0-3.5-0.3-3.5,2.6v13.5h22.6v4.1c0,0,0,2.1-2.1,2.1h-20.6v17.6h24.7c0,0,15-2.3,15-17.6V190
		H-3510z M-3474.2,168.2h-44.6c-16.1,3.8-16.4,17-16.4,17v44.6h17v-40.5c0-3.5,3.5-4.1,3.5-4.1h40.5L-3474.2,168.2L-3474.2,168.2z
		 M-3415.5,217c-1.2,0.9-2.1,1.5-2.6,1.8c-2.1,1.5-4.4,2.3-6.2,3.2c-2.9,1.2-5.3,1.8-7.6,1.8c-7.6,0-14.1-2.3-19.4-7
		s-7.6-10.9-7.6-17.9c0-7,2.3-12.9,7-18.2c4.7-5,10.3-7.6,17-7.6c2.6,0,5.6,0.6,8.8,1.5c4.1,1.2,7.3,3.2,9.7,5.6l-4.4,5
		c-1.8-1.8-4.4-3.2-7.3-4.1c-2.3-0.6-4.7-0.9-7-0.9c-4.7,0-8.5,1.8-11.7,5.6c-3.2,3.8-4.7,8.2-4.7,13.5s1.8,9.4,5.3,12.9
		c3.5,3.5,8.2,5,13.5,5c2.5,0,4.9-0.7,7-2.1c2.1-1.5,2.9-2.3,2.9-2.3v-10.9h-15l2.3-6.5h20L-3415.5,217L-3415.5,217z M-3370.5,204.1
		c0.1,5.1-1.9,10-5.6,13.5c-3.8,3.8-8.2,5.6-13.5,5.6c-5,0-9.4-1.8-13.2-5.6c-3.7-3.5-5.7-8.4-5.6-13.5c0-5.3,1.8-9.7,5.3-13.5
		c3.5-3.8,7.9-5.9,13.2-5.9c5.6,0,10.3,1.8,14.1,5.6C-3372.3,193.8-3370.5,198.5-3370.5,204.1L-3370.5,204.1z M-3377.6,204.1
		c0-3.5-1.2-6.5-3.5-8.8c-2.3-2.3-5.3-3.5-8.8-3.5c-3.2,0-6.2,1.2-8.2,3.8c-2.3,2.6-3.5,5.3-3.5,8.5c0,3.5,1.2,6.2,3.5,8.8
		c2.3,2.3,5.3,3.5,8.5,3.5c3.2,0,5.9-1.2,8.2-3.5C-3378.8,210.2-3377.3,207.6-3377.6,204.1L-3377.6,204.1z M-3325.9,204.1
		c0.1,5.1-1.9,10-5.6,13.5c-3.8,3.8-8.2,5.6-13.5,5.6c-5,0-9.4-1.8-13.2-5.6c-3.7-3.5-5.7-8.4-5.6-13.5c-0.1-5,1.8-9.9,5.3-13.5
		c3.5-3.8,7.9-5.9,13.2-5.9c5.6,0,10.3,1.8,14.1,5.6C-3328,193.8-3325.9,198.5-3325.9,204.1L-3325.9,204.1z M-3332.9,204.1
		c0-3.5-1.2-6.5-3.5-8.8c-2.4-2.3-5.3-3.5-8.8-3.5c-3.2,0-6.2,1.2-8.2,3.8c-2.3,2.6-3.5,5.3-3.5,8.5c0,3.5,1.2,6.2,3.5,8.8
		c2.3,2.3,5.3,3.5,8.5,3.5c3.2,0,5.9-1.2,8.2-3.5C-3334.1,210.2-3332.9,207.6-3332.9,204.1L-3332.9,204.1z M-3284.8,222.3l-6.5,0.9
		V217l-1.5,1.5c-1.2,1.2-2.6,2.1-4.1,2.9c-2.2,0.9-4.6,1.4-7,1.5c-5,0-9.4-1.8-12.6-5.6c-3.5-3.8-5.3-8.2-5.3-13.2
		c0-5.3,1.8-10,5.3-13.5c3.5-3.5,7.6-5.6,12.6-5.6c2.5,0,5,0.5,7.3,1.5c1.5,0.6,2.6,1.5,3.8,2.6c0.3,0.6,0.6,0.9,1.2,1.5v-16.5
		l6.8-0.9V222.3z M-3291,204.6c0-3.5-1.2-6.8-3.8-9.4c-2.6-2.6-5.3-3.8-8.5-3.8c-3.5,0-6.5,1.2-8.5,3.5c-2.1,2.3-3.2,5.3-3.2,8.5
		c0,3.8,1.2,6.8,3.2,9.1c2.1,2.4,5,3.5,8.2,3.5s6.2-1.2,8.8-3.2C-3292.1,210.5-3290.9,207.9-3291,204.6L-3291,204.6z M-3248.7,180.8
		h-19.1v12.9h15v6.8h-15V222l-7.3,1.2v-49h25.3L-3248.7,180.8L-3248.7,180.8z M-3233.4,177l-4.7,5.9l-4.4-5.9l4.7-5.9L-3233.4,177z
		 M-3234.9,222.3l-6.8,0.9v-36.4l6.8-1.2V222.3L-3234.9,222.3z M-3203.7,185.3l-3.2,7.3h-1.2c-0.6,0-1.5,0-2.1,0.3
		c-0.6,0-1.5,0.3-2.1,0.6c-1.5,0.6-2.6,2.1-3.8,4.1c-1.2,2.3-1.8,5-1.8,7.3v17l-6.8,1.2v-36.4l6.5-1.2v7.6c0.9-1.2,1.8-2.6,2.6-4.1
		c1.2-1.5,2.6-2.3,4.1-2.9c0.9-0.3,2.3-0.6,4.4-0.9L-3203.7,185.3L-3203.7,185.3z M-3152.9,222.3l-6.8,0.9v-25c0-2.3-0.6-4.1-1.5-5
		c-0.9-1.2-2.6-1.5-4.4-1.5c-2.3,0-4.1,0.9-5.6,2.9c-0.9,1.5-1.2,2.9-1.2,4.4v23.2l-6.8,1.2v-25c0-2.1-0.6-3.8-1.5-5
		c-0.9-1.2-2.3-1.8-4.1-1.8h-0.6c-2.3,0-4.1,0.9-5.3,2.9c-0.9,1.5-1.2,3.5-1.2,5.9v21.7l-7,1.2v-36.7l6.5-1.2v4.7
		c0.6-1.2,1.5-2.1,2.1-2.6c1.7-1.7,4-2.7,6.5-2.6c2.6,0,4.7,0.3,6.2,1.2c1.2,0.6,2.3,2.1,3.5,4.4c2.3-3.8,5.6-5.6,10-5.6
		c4.1,0,7.3,1.2,9.4,4.1c1.8,2.1,2.6,5.6,2.6,9.7v23.5L-3152.9,222.3L-3152.9,222.3z M-3121.5,211.1c0,3.2-1.2,6.2-3.5,8.2
		s-5.3,3.2-8.8,3.2c-2.6,0-5-0.6-7.3-1.8c-2.1-1.2-3.8-2.6-5-4.4l4.7-4.4c0.3,0.6,0.6,0.9,0.9,1.2c1.8,1.8,3.8,2.6,6.5,2.6
		c1.8,0,3.2-0.6,4.1-1.5c0.9-0.9,1.5-2.1,1.5-3.8c0-1.8-1.2-3.2-3.5-3.8l-7.6-2.3c-2.1-1.2-3.8-2.3-4.7-3.5
		c-1.2-1.5-1.8-3.5-1.8-6.2c0-3.2,1.2-5.9,3.5-7.9s5-3.2,8.2-3.2c2.3,0,4.7,0.6,6.8,1.8s3.5,2.3,4.4,3.5l-3.8,5.3
		c-0.6-0.7-1.3-1.2-2.1-1.8c-1.8-1.2-3.2-1.8-4.7-1.8c-1.5,0-2.6,0.3-3.5,0.9c-1.1,0.8-1.8,2.1-1.8,3.5c0,1.5,0.6,2.6,1.5,3.2
		s2.9,1.2,5.9,1.8s5.3,2.1,7,3.8C-3122.4,205.8-3121.5,208.2-3121.5,211.1L-3121.5,211.1z"/>
	<g>
		<path d="M-3059.9,211.5l8.2-9.7l-8.5-10l2-1l7.9,9.4l7.9-9.4l1.9,1l-8.5,10l8.2,9.7l-1.5,1.5l-8.1-9.6l-8,9.6L-3059.9,211.5z"/>
	</g>
	
		<image style="overflow:visible;" width="838" height="362" xlink:href="863A209DBC92F312.png"  transform="matrix(0.2953 0 0 0.2953 -2979.5134 144.8107)">
	</image>
</g>
<g id="rfak7d.tif">
	
		<image style="overflow:visible;" width="197" height="442" id="Layer_0" xlink:href="863A209DBC92F316.png"  transform="matrix(6.123234e-17 -1 1 6.123234e-17 -1854.5347 473.4733)">
	</image>
</g>
<path class="st14" d="M31.2,26.9c0,0-4.4-0.4-4.4,3.3v16.7h28V52c0,0,0,2.5-2.5,2.5H26.9v21.8h30.5c0,0,18.5-2.9,18.5-21.8V26.9
	H31.2z M75.6,0H20.3C0.4,4.7,0,21.1,0,21.1v55.2h21.1V26.2c0-4.4,4.4-5.1,4.4-5.1h50.1L75.6,0L75.6,0z M148.3,60.3
	c-1.5,1.1-2.5,1.8-3.3,2.2c-2.5,1.8-5.4,2.9-7.6,4c-3.6,1.5-6.5,2.2-9.4,2.2c-9.4,0-17.4-2.9-24-8.7c-6.5-5.8-9.4-13.4-9.4-22.2
	s2.9-16,8.7-22.5c5.8-6.2,12.7-9.4,21.1-9.4c3.3,0,6.9,0.7,10.9,1.8c5.1,1.5,9.1,4,12,6.9l-5.4,6.2c-2.2-2.2-5.4-4-9.1-5.1
	c-2.9-0.7-5.8-1.1-8.7-1.1c-5.8,0-10.5,2.2-14.5,6.9c-4,4.7-5.8,10.2-5.8,16.7s2.2,11.6,6.5,16c4.4,4.4,10.2,6.2,16.7,6.2
	c3.1,0,6.1-0.9,8.7-2.5c2.5-1.8,3.6-2.9,3.6-2.9V41.4h-18.5l2.9-8h24.7L148.3,60.3L148.3,60.3z M203.9,44.3
	c0.1,6.3-2.4,12.4-6.9,16.7c-4.7,4.7-10.2,6.9-16.7,6.9c-6.2,0-11.6-2.2-16.4-6.9c-4.5-4.4-7-10.4-6.9-16.7c0-6.5,2.2-12,6.5-16.7
	s9.8-7.3,16.4-7.3c6.9,0,12.7,2.2,17.4,6.9C201.7,31.6,203.9,37.4,203.9,44.3L203.9,44.3z M195.1,44.3c0-4.4-1.5-8-4.4-10.9
	s-6.5-4.4-10.9-4.4c-4,0-7.6,1.5-10.2,4.7c-2.9,3.3-4.4,6.5-4.4,10.5c0,4.4,1.5,7.6,4.4,10.9c2.9,2.9,6.5,4.4,10.5,4.4
	c4,0,7.3-1.5,10.2-4.4C193.7,52,195.5,48.7,195.1,44.3L195.1,44.3z M259.1,44.3c0.1,6.3-2.4,12.4-6.9,16.7
	c-4.7,4.7-10.2,6.9-16.7,6.9c-6.2,0-11.6-2.2-16.4-6.9c-4.5-4.4-7-10.4-6.9-16.7c-0.1-6.2,2.2-12.2,6.5-16.7
	c4.4-4.7,9.8-7.3,16.4-7.3c6.9,0,12.7,2.2,17.4,6.9C256.5,31.6,259.1,37.4,259.1,44.3L259.1,44.3z M250.4,44.3c0-4.4-1.5-8-4.4-10.9
	c-2.9-2.9-6.5-4.4-10.9-4.4c-4,0-7.6,1.5-10.2,4.7c-2.9,3.3-4.4,6.5-4.4,10.5c0,4.4,1.5,7.6,4.4,10.9c2.9,2.9,6.5,4.4,10.5,4.4
	s7.3-1.5,10.2-4.4C248.9,52,250.4,48.7,250.4,44.3L250.4,44.3z M310,66.9l-8,1.1v-7.6l-1.8,1.8c-1.4,1.5-3.3,2.5-5.1,3.6
	c-2.8,1.2-5.7,1.8-8.7,1.8c-6.2,0-11.6-2.2-15.6-6.9c-4.4-4.7-6.5-10.2-6.5-16.4c0-6.5,2.2-12.4,6.5-16.7s9.4-6.9,15.6-6.9
	c3.1,0,6.2,0.6,9.1,1.8c1.8,0.7,3.3,1.8,4.7,3.3c0.4,0.7,0.7,1.1,1.5,1.8V7.3l8.4-1.1V66.9z M302.3,45.1c0-4.4-1.5-8.4-4.7-11.6
	c-3.3-3.3-6.5-4.7-10.5-4.7c-4.4,0-8,1.5-10.5,4.4c-2.5,2.9-4,6.5-4,10.5c0,4.7,1.5,8.4,4,11.3c2.5,2.9,6.2,4.4,10.2,4.4
	s7.6-1.5,10.9-4C300.9,52.3,302.3,49.1,302.3,45.1L302.3,45.1z M354.7,15.6H331v16h18.5V40H331v26.5l-9.1,1.5V7.3h31.2L354.7,15.6
	L354.7,15.6z M373.6,10.9l-5.8,7.3l-5.4-7.3l5.8-7.3C368.1,3.6,373.6,10.9,373.6,10.9z M371.7,66.9l-8.4,1.1V22.9l8.4-1.5V66.9
	L371.7,66.9z M410.3,21.1l-4,9.1h-1.4c-0.7,0-1.8,0-2.5,0.4c-0.7,0-1.8,0.4-2.5,0.7c-1.8,0.7-3.3,2.5-4.7,5.1
	c-1.5,2.9-2.2,6.2-2.2,9.1v21.1l-8.4,1.5V22.9l8-1.5v9.4c1.1-1.5,2.2-3.3,3.3-5.1c1.4-1.8,3.3-2.9,5.1-3.6c1.1-0.4,2.9-0.7,5.4-1.1
	L410.3,21.1L410.3,21.1z M473.1,66.9l-8.4,1.1V37.1c0-2.9-0.7-5.1-1.8-6.2c-1.1-1.5-3.3-1.8-5.4-1.8c-2.9,0-5.1,1.1-6.9,3.6
	c-1.1,1.8-1.5,3.6-1.5,5.4v28.7l-8.4,1.5V37.4c0-2.5-0.7-4.7-1.8-6.2c-1.1-1.5-2.9-2.2-5.1-2.2h-0.7c-2.9,0-5.1,1.1-6.5,3.6
	c-1.1,1.8-1.5,4.4-1.5,7.3v26.9l-8.7,1.5V22.9l8-1.5v5.8c0.7-1.5,1.8-2.5,2.5-3.3c2.1-2.1,5-3.3,8-3.3c3.3,0,5.8,0.4,7.6,1.5
	c1.4,0.7,2.9,2.5,4.4,5.4c2.9-4.7,6.9-6.9,12.4-6.9c5.1,0,9.1,1.5,11.6,5.1c2.2,2.5,3.3,6.9,3.3,12v29.1L473.1,66.9L473.1,66.9z
	 M512,53c0,4-1.5,7.6-4.4,10.2c-2.9,2.5-6.5,4-10.9,4c-3.3,0-6.2-0.7-9.1-2.2c-2.5-1.5-4.7-3.3-6.2-5.4l5.8-5.4
	c0.4,0.7,0.7,1.1,1.1,1.5c2.2,2.2,4.7,3.3,8,3.3c2.2,0,4-0.7,5.1-1.8c1.1-1.1,1.8-2.5,1.8-4.7c0-2.2-1.5-4-4.4-4.7l-9.4-2.9
	c-2.5-1.5-4.7-2.9-5.8-4.4c-1.5-1.8-2.2-4.4-2.2-7.6c0-4,1.5-7.3,4.4-9.8s6.2-4,10.2-4c2.9,0,5.8,0.7,8.4,2.2
	c2.5,1.5,4.4,2.9,5.4,4.4l-4.7,6.5c-0.8-0.8-1.6-1.5-2.5-2.2c-2.2-1.5-4-2.2-5.8-2.2s-3.3,0.4-4.4,1.1c-1.4,1-2.2,2.6-2.2,4.4
	c0,1.8,0.7,3.3,1.8,4c1.1,0.7,3.6,1.5,7.3,2.2s6.5,2.5,8.7,4.7C510.9,46.5,512,49.4,512,53L512,53z"/>
<g>
</g>
<g>
</g>
<g>
</g>
<g>
</g>
<g>
</g>
<g>
</g>
</svg>
