<svg width="167" height="48" viewBox="0 0 167 48" fill="none" xmlns="http://www.w3.org/2000/svg">
<g clip-path="url(#clip0_15016_24375)">
<path fill-rule="evenodd" clip-rule="evenodd" d="M166.639 8.547H162.84V5.27H159.013V20.58H162.351V25.175H150.286V20.581H153.624V5.27H146.612V25.175H142.568L134.208 10.629V20.581H136.26V25.175H126.797V20.581H129.37V5.27H126.797V0.677002H133.841L141.772 14.427V5.27H139.812V0.677002H166.639V8.547ZM108.422 0.677002H124.714V5.271H116.324V10.537H122.694V15.315H116.324V20.582H124.714V25.176H108.729V20.582H110.872V5.27H108.422V0.677002ZM99.8791 9.098C99.8791 6.77 98.4391 5.271 95.1921 5.271H93.5701V12.926H95.1921C98.4391 12.926 99.8791 11.425 99.8791 9.098ZM104.074 20.582H106.645V25.176H100.307L96.2951 17.367C95.9901 17.397 95.6521 17.397 95.3461 17.397H93.5701V25.177H86.0061V20.582H88.2111V5.27H86.0061V0.677002H95.3461C102.176 0.677002 105.483 3.432 105.483 8.792C105.483 12.161 103.859 14.518 101.44 15.896L104.074 20.582ZM71.5201 0.677002H83.9231V5.271H80.4331V20.581H83.9231V25.176H71.5191V20.582H75.0111V5.27H71.5191V0.677002H71.5201ZM62.6701 0.677002H69.4381V5.271H67.2331V20.581H69.4381V25.176H60.1891V20.582H62.2411V9.742L57.2501 17.184H56.8201L51.9521 9.742V20.582H54.0041V25.176H45.1541V20.582H47.0511V5.27H44.4801V0.677002H51.5231L57.0971 9.435L62.6701 0.677002ZM34.7101 16.295L32.7811 7.628H32.3531L30.2701 16.295H34.7101ZM14.1631 9.098C14.1631 6.77 12.7241 5.271 9.47706 5.271H7.85306V12.926H9.47606C12.7231 12.926 14.1631 11.425 14.1631 9.098ZM41.1131 20.582H43.1331V25.176H36.7031L35.6611 20.582H29.2611L28.1581 25.176H14.5911L10.5781 17.367C10.2731 17.397 9.93606 17.397 9.63006 17.397H7.85306V25.177H0.289062V20.582H2.49406V5.27H0.289062V0.677002H9.62906C16.4591 0.677002 19.7661 3.432 19.7661 8.792C19.7661 12.161 18.1421 14.518 15.7231 15.927L18.3271 20.582H23.9301L27.8501 5.271H25.6761V0.677002H36.5161L41.1111 20.582H41.1131Z" fill="#003287"/>
<path fill-rule="evenodd" clip-rule="evenodd" d="M77.4336 40.8861H78.9836C78.8726 43.1421 77.1136 44.6221 74.7336 44.6221C71.8556 44.6221 70.0156 42.5191 70.0156 39.4881C70.0156 36.4851 71.8836 34.4641 74.7896 34.4641C77.1286 34.4641 78.7196 35.7781 78.9416 37.8401H77.3776C77.2396 36.6651 76.1456 35.8901 74.7336 35.8901C72.8116 35.8901 71.5646 37.3151 71.5646 39.4601C71.5646 41.6051 72.7826 43.1421 74.7336 43.1421C76.1456 43.1421 77.3086 42.3251 77.4336 40.8861ZM81.7686 40.8581C81.7686 42.2821 82.4736 43.1981 83.7886 43.1981C85.0626 43.1981 85.7536 42.2821 85.7536 40.8581C85.7536 39.4451 85.0486 38.5051 83.7466 38.5051C82.4606 38.5051 81.7686 39.4451 81.7686 40.8581ZM87.2216 40.8581C87.2216 43.0711 85.9066 44.5261 83.7616 44.5261C81.6166 44.5261 80.3016 43.0711 80.3016 40.8581C80.3016 38.6561 81.6306 37.1781 83.7616 37.1781C85.8926 37.1781 87.2216 38.6561 87.2216 40.8581ZM98.8366 39.5301V44.3731H97.3836V39.8761C97.3836 38.9341 96.9256 38.4361 96.0956 38.4361C95.0986 38.4361 94.5876 39.1141 94.5876 40.3601V44.3731H93.1196V39.8761C93.1196 38.9461 92.6776 38.4361 91.8326 38.4361C90.8506 38.4361 90.3256 39.1281 90.3256 40.3461V44.3731H88.8576V37.3151H90.3096V38.4921C90.6566 37.4811 91.4596 37.1771 92.2616 37.1771C93.3266 37.1771 93.9916 37.6321 94.2686 38.6151C94.6416 37.6321 95.3756 37.1771 96.4416 37.1771C97.9356 37.1771 98.8366 38.0631 98.8366 39.5301ZM106.281 40.8161C106.281 39.4181 105.491 38.4921 104.275 38.4921C103.057 38.4921 102.254 39.4181 102.254 40.8161C102.254 42.2281 103.043 43.1551 104.274 43.1551C105.478 43.1551 106.281 42.2281 106.281 40.8161ZM107.748 40.7461C107.748 42.9751 106.448 44.4291 104.565 44.4291C103.568 44.4291 102.752 44.0411 102.309 43.3061V47.0301H100.843V37.3151H102.268V38.5881C102.724 37.7171 103.568 37.1781 104.731 37.1781C106.558 37.1781 107.748 38.5881 107.748 40.7471V40.7461ZM113.531 41.3841V40.8711C113.322 40.9411 113.087 40.9961 112.478 41.0941L111.676 41.2171C110.805 41.3561 110.348 41.6891 110.348 42.3371C110.348 42.9471 110.775 43.2931 111.55 43.2931C112.618 43.2931 113.531 42.5731 113.531 41.3841ZM114.915 39.5431V44.3731H113.516V43.3061C112.949 44.2211 112.063 44.5261 111.205 44.5261C109.751 44.5261 108.907 43.6661 108.907 42.3801C108.907 41.1491 109.71 40.5251 111.108 40.3191L112.686 40.0821C113.102 40.0261 113.571 39.8761 113.571 39.2521C113.571 38.6151 113.06 38.2691 112.216 38.2691C111.261 38.2691 110.693 38.7131 110.583 39.4881H109.198C109.365 38.0481 110.43 37.1781 112.228 37.1781C113.974 37.1781 114.915 37.9791 114.915 39.5431ZM122.963 39.8061V44.3731H121.511V39.9581C121.511 39.0451 120.971 38.4781 120.113 38.4781C119.02 38.4781 118.343 39.2941 118.343 40.5951V44.3731H116.875V37.3151H118.343V38.3651C118.826 37.5351 119.463 37.1771 120.501 37.1771C122.078 37.1771 122.963 38.0741 122.963 39.8061Z" fill="#0A0B09"/>
<mask id="mask0_15016_24375" style="mask-type:luminance" maskUnits="userSpaceOnUse" x="0" y="34" width="131" height="13">
<path d="M0.0703125 34.4141H130.735V46.9361H0.0703125V34.4141Z" fill="white"/>
</mask>
<g mask="url(#mask0_15016_24375)">
<path fill-rule="evenodd" clip-rule="evenodd" d="M130.736 37.3151L127.773 45.0791C127.387 46.0891 126.459 46.6421 125.159 46.6421H124.591V45.3971H125.089C125.823 45.3971 126.389 45.0931 126.598 44.5121L126.653 44.3451L123.885 37.3151H125.421L127.345 42.6151L129.255 37.3151H130.736ZM6.338 40.7091L4.692 36.2821L3.045 40.7091H6.338ZM6.878 42.1361H2.506L1.633 44.4761H0L3.779 34.7871H5.647L9.425 44.4751H7.75L6.877 42.1351L6.878 42.1361Z" fill="#0A0B09"/>
</g>
<path fill-rule="evenodd" clip-rule="evenodd" d="M13.8828 35.0201H17.2818V41.3711H20.1338V44.3731H13.8828V35.0201ZM26.3628 34.8711C23.5228 34.8711 21.1918 36.7811 21.1918 39.7211C21.1918 42.7231 23.5108 44.5211 26.3648 44.5211C29.2168 44.5211 31.5378 42.7231 31.5378 39.7211C31.5368 36.7811 29.2028 34.8711 26.3628 34.8711ZM26.3628 37.9481C27.4428 37.9481 28.1128 38.7781 28.1128 39.7721C28.1128 40.8371 27.3928 41.5691 26.3628 41.5691C25.3328 41.5691 24.6138 40.8371 24.6138 39.7721C24.6138 38.7781 25.2838 37.9481 26.3638 37.9481H26.3628Z" fill="#D0232A"/>
<path fill-rule="evenodd" clip-rule="evenodd" d="M41.3828 35.021L38.4548 39.398L41.7918 44.373H37.9218L36.8548 42.388C36.7548 42.202 36.6928 42.016 36.6558 41.818H36.5558C36.4948 42.041 36.4078 42.251 36.2958 42.463L35.2548 44.373H31.3828L34.6578 39.398L31.7178 35.02H35.5508L36.2458 36.348C36.3818 36.595 36.4558 36.856 36.5318 37.117H36.6058C36.6678 36.843 36.7798 36.595 36.9028 36.347L37.5478 35.021H41.3828ZM45.9498 43.207H48.5198L48.8288 44.373H52.4258L49.0898 35.021H45.3298L42.0798 44.374H45.6778L45.9498 43.207ZM46.5598 40.987L47.1798 38.134H47.3038C47.3638 38.53 47.4268 38.94 47.5258 39.336L47.9228 40.986H46.5588L46.5598 40.987ZM54.2618 35.021H57.7608L59.0508 39.931H59.1378C59.1978 39.522 59.2608 39.088 59.3728 38.692L60.4268 35.021H63.8888L65.4268 44.374H62.1388L61.6808 39.25H61.6178C61.5558 39.56 61.4948 39.883 61.3958 40.18L60.0428 44.374H58.0578L56.8428 40.416C56.7428 40.02 56.6568 39.646 56.6328 39.249H56.5198C56.4958 39.622 56.4708 40.007 56.4328 40.379L56.0368 44.373H52.7498L54.2618 35.021Z" fill="#D0232A"/>
</g>
<defs>
<clipPath id="clip0_15016_24375">
<rect width="167" height="48" fill="white"/>
</clipPath>
</defs>
</svg>
